G75*
%MOIN*%
%OFA0B0*%
%FSLAX25Y25*%
%IPPOS*%
%LPD*%
%AMOC8*
5,1,8,0,0,1.08239X$1,22.5*
%
%ADD10C,0.00000*%
%ADD11R,0.06400X0.06400*%
%ADD12C,0.06400*%
%ADD13R,0.04652X0.04534*%
%ADD14R,0.04534X0.04652*%
%ADD15C,0.06400*%
%ADD16OC8,0.07000*%
%ADD17C,0.07000*%
%ADD18R,0.05124X0.05124*%
%ADD19R,0.07400X0.03900*%
D10*
X0002450Y0037800D02*
X0002450Y0266800D01*
X0111050Y0266800D01*
X0111050Y0037800D01*
X0002450Y0037800D01*
D11*
X0017250Y0257000D03*
D12*
X0017250Y0247000D03*
X0017250Y0237000D03*
X0017250Y0227000D03*
X0017250Y0217000D03*
X0017250Y0207000D03*
X0017250Y0197000D03*
X0017250Y0187000D03*
X0017250Y0177000D03*
X0017250Y0167000D03*
X0017250Y0157000D03*
X0017250Y0147000D03*
X0017250Y0137000D03*
X0017250Y0127000D03*
X0017250Y0117000D03*
X0017250Y0107000D03*
X0017250Y0097000D03*
X0017250Y0087000D03*
X0017250Y0077000D03*
X0017250Y0067000D03*
X0077250Y0067000D03*
X0077250Y0077000D03*
X0077250Y0087000D03*
X0077250Y0097000D03*
X0077250Y0107000D03*
X0077250Y0117000D03*
X0077250Y0127000D03*
X0077250Y0137000D03*
X0077250Y0147000D03*
X0077250Y0157000D03*
X0077250Y0167000D03*
X0077250Y0177000D03*
X0077250Y0187000D03*
X0077250Y0197000D03*
X0077250Y0207000D03*
X0077250Y0217000D03*
X0077250Y0227000D03*
X0077250Y0237000D03*
X0077250Y0247000D03*
X0077250Y0257000D03*
D13*
X0032050Y0077045D03*
X0032050Y0070155D03*
X0038450Y0073445D03*
X0038450Y0066555D03*
X0044450Y0066555D03*
X0044450Y0073445D03*
X0050850Y0073445D03*
X0050850Y0066555D03*
X0056850Y0066555D03*
X0056850Y0073445D03*
D14*
X0056605Y0085600D03*
X0056605Y0091600D03*
X0056605Y0097600D03*
X0063495Y0097600D03*
X0063495Y0091600D03*
X0063495Y0085600D03*
X0038695Y0085600D03*
X0038695Y0091600D03*
X0038695Y0097600D03*
X0031805Y0097600D03*
X0031805Y0091600D03*
X0031805Y0085600D03*
D15*
X0034850Y0048000D02*
X0034850Y0042000D01*
X0024850Y0042000D02*
X0024850Y0048000D01*
X0014850Y0048000D02*
X0014850Y0042000D01*
X0044850Y0042000D02*
X0044850Y0048000D01*
X0054850Y0048000D02*
X0054850Y0042000D01*
D16*
X0096150Y0230200D03*
D17*
X0095150Y0240200D03*
X0096150Y0250200D03*
X0095150Y0260200D03*
D18*
X0106450Y0260934D03*
X0106450Y0252666D03*
X0106450Y0244934D03*
X0106450Y0236666D03*
X0106450Y0222934D03*
X0106450Y0214666D03*
X0106450Y0206934D03*
X0106450Y0198666D03*
X0106450Y0184934D03*
X0106450Y0176666D03*
X0106450Y0168934D03*
X0106450Y0160666D03*
X0106450Y0146734D03*
X0106450Y0138466D03*
X0106450Y0130734D03*
X0106450Y0122466D03*
D19*
X0007050Y0126600D03*
X0007050Y0134100D03*
X0007050Y0141600D03*
X0007050Y0149100D03*
M02*
