G75*
%MOIN*%
%OFA0B0*%
%FSLAX25Y25*%
%IPPOS*%
%LPD*%
%AMOC8*
5,1,8,0,0,1.08239X$1,22.5*
%
%ADD10C,0.00000*%
%ADD11C,0.00300*%
%ADD12C,0.00600*%
%ADD13C,0.03000*%
%ADD14R,0.03000X0.02000*%
%ADD15R,0.03000X0.04000*%
%ADD16R,0.00787X0.00787*%
D10*
X0001000Y0037800D02*
X0001000Y0266800D01*
X0109600Y0266800D01*
X0109600Y0037800D01*
X0001000Y0037800D01*
D11*
X0002588Y0039794D02*
X0004673Y0039794D01*
X0005090Y0040211D01*
X0005090Y0041045D01*
X0004673Y0041462D01*
X0002588Y0041462D01*
X0003005Y0042372D02*
X0003422Y0042372D01*
X0003839Y0042789D01*
X0003839Y0043623D01*
X0004256Y0044040D01*
X0004673Y0044040D01*
X0005090Y0043623D01*
X0005090Y0042789D01*
X0004673Y0042372D01*
X0005948Y0042802D02*
X0005948Y0044053D01*
X0006365Y0044470D01*
X0007199Y0044470D01*
X0007616Y0044053D01*
X0007616Y0042802D01*
X0008450Y0042802D02*
X0005948Y0042802D01*
X0006365Y0041891D02*
X0005948Y0041474D01*
X0005948Y0040640D01*
X0006365Y0040223D01*
X0008033Y0040223D01*
X0008450Y0040640D01*
X0008450Y0041474D01*
X0008033Y0041891D01*
X0007199Y0041891D01*
X0007199Y0041057D01*
X0008450Y0045380D02*
X0008450Y0046214D01*
X0008450Y0045797D02*
X0005948Y0045797D01*
X0005948Y0045380D02*
X0005948Y0046214D01*
X0005090Y0046618D02*
X0005090Y0044950D01*
X0002588Y0044950D01*
X0002588Y0046618D01*
X0002588Y0047528D02*
X0002588Y0048779D01*
X0003005Y0049196D01*
X0003839Y0049196D01*
X0004256Y0048779D01*
X0004256Y0047528D01*
X0005090Y0047528D02*
X0002588Y0047528D01*
X0004256Y0048362D02*
X0005090Y0049196D01*
X0005948Y0048350D02*
X0005948Y0047516D01*
X0006365Y0047098D01*
X0008033Y0047098D01*
X0008450Y0047516D01*
X0008450Y0048350D01*
X0008033Y0048767D01*
X0006365Y0048767D01*
X0005948Y0048350D01*
X0003839Y0045784D02*
X0003839Y0044950D01*
X0003005Y0044040D02*
X0002588Y0043623D01*
X0002588Y0042789D01*
X0003005Y0042372D01*
X0010744Y0052550D02*
X0010327Y0052967D01*
X0011995Y0054635D01*
X0011995Y0052967D01*
X0011578Y0052550D01*
X0010744Y0052550D01*
X0010327Y0052967D02*
X0010327Y0054635D01*
X0010744Y0055052D01*
X0011578Y0055052D01*
X0011995Y0054635D01*
X0012905Y0052967D02*
X0013322Y0052967D01*
X0013322Y0052550D01*
X0012905Y0052550D01*
X0012905Y0052967D01*
X0014195Y0052967D02*
X0014612Y0052550D01*
X0015446Y0052550D01*
X0015863Y0052967D01*
X0015863Y0053384D01*
X0015446Y0053801D01*
X0015029Y0053801D01*
X0015446Y0053801D02*
X0015863Y0054218D01*
X0015863Y0054635D01*
X0015446Y0055052D01*
X0014612Y0055052D01*
X0014195Y0054635D01*
X0020327Y0054635D02*
X0020327Y0052967D01*
X0021995Y0054635D01*
X0021995Y0052967D01*
X0021578Y0052550D01*
X0020744Y0052550D01*
X0020327Y0052967D01*
X0020327Y0054635D02*
X0020744Y0055052D01*
X0021578Y0055052D01*
X0021995Y0054635D01*
X0022905Y0052967D02*
X0023322Y0052967D01*
X0023322Y0052550D01*
X0022905Y0052550D01*
X0022905Y0052967D01*
X0024195Y0052550D02*
X0025863Y0054218D01*
X0025863Y0054635D01*
X0025446Y0055052D01*
X0024612Y0055052D01*
X0024195Y0054635D01*
X0024195Y0052550D02*
X0025863Y0052550D01*
X0030327Y0052967D02*
X0031995Y0054635D01*
X0031995Y0052967D01*
X0031578Y0052550D01*
X0030744Y0052550D01*
X0030327Y0052967D01*
X0030327Y0054635D01*
X0030744Y0055052D01*
X0031578Y0055052D01*
X0031995Y0054635D01*
X0032905Y0052967D02*
X0033322Y0052967D01*
X0033322Y0052550D01*
X0032905Y0052550D01*
X0032905Y0052967D01*
X0034195Y0052550D02*
X0035863Y0052550D01*
X0035029Y0052550D02*
X0035029Y0055052D01*
X0034195Y0054218D01*
X0036299Y0062130D02*
X0037700Y0062130D01*
X0038050Y0062481D01*
X0038050Y0063181D01*
X0037700Y0063531D01*
X0038050Y0064340D02*
X0036649Y0065741D01*
X0036299Y0065741D01*
X0035948Y0065391D01*
X0035948Y0064690D01*
X0036299Y0064340D01*
X0036299Y0063531D02*
X0035948Y0063181D01*
X0035948Y0062481D01*
X0036299Y0062130D01*
X0038050Y0064340D02*
X0038050Y0065741D01*
X0040348Y0065391D02*
X0040699Y0065741D01*
X0041049Y0065741D01*
X0041399Y0065391D01*
X0041749Y0065741D01*
X0042100Y0065741D01*
X0042450Y0065391D01*
X0042450Y0064690D01*
X0042100Y0064340D01*
X0042100Y0063531D02*
X0042450Y0063181D01*
X0042450Y0062481D01*
X0042100Y0062130D01*
X0040699Y0062130D01*
X0040348Y0062481D01*
X0040348Y0063181D01*
X0040699Y0063531D01*
X0040699Y0064340D02*
X0040348Y0064690D01*
X0040348Y0065391D01*
X0041399Y0065391D02*
X0041399Y0065041D01*
X0041578Y0055052D02*
X0040744Y0055052D01*
X0040327Y0054635D01*
X0040327Y0052967D01*
X0041995Y0054635D01*
X0041995Y0052967D01*
X0041578Y0052550D01*
X0040744Y0052550D01*
X0040327Y0052967D01*
X0041995Y0054635D02*
X0041578Y0055052D01*
X0042905Y0052967D02*
X0043322Y0052967D01*
X0043322Y0052550D01*
X0042905Y0052550D01*
X0042905Y0052967D01*
X0044195Y0052967D02*
X0044195Y0054635D01*
X0044612Y0055052D01*
X0045446Y0055052D01*
X0045863Y0054635D01*
X0044195Y0052967D01*
X0044612Y0052550D01*
X0045446Y0052550D01*
X0045863Y0052967D01*
X0045863Y0054635D01*
X0048794Y0054218D02*
X0048794Y0052550D01*
X0048794Y0053801D02*
X0050462Y0053801D01*
X0050462Y0054218D02*
X0050462Y0052550D01*
X0051372Y0052967D02*
X0051372Y0054635D01*
X0051789Y0055052D01*
X0052623Y0055052D01*
X0053040Y0054635D01*
X0053040Y0053801D02*
X0052206Y0053801D01*
X0053040Y0053801D02*
X0053040Y0052967D01*
X0052623Y0052550D01*
X0051789Y0052550D01*
X0051372Y0052967D01*
X0050462Y0054218D02*
X0049628Y0055052D01*
X0048794Y0054218D01*
X0048699Y0062130D02*
X0048348Y0062481D01*
X0048348Y0063181D01*
X0048699Y0063531D01*
X0049399Y0064340D02*
X0049399Y0065391D01*
X0049749Y0065741D01*
X0050100Y0065741D01*
X0050450Y0065391D01*
X0050450Y0064690D01*
X0050100Y0064340D01*
X0049399Y0064340D01*
X0048699Y0065041D01*
X0048348Y0065741D01*
X0048699Y0062130D02*
X0050100Y0062130D01*
X0050450Y0062481D01*
X0050450Y0063181D01*
X0050100Y0063531D01*
X0053950Y0055052D02*
X0055618Y0052550D01*
X0055618Y0055052D01*
X0056528Y0055052D02*
X0056528Y0052550D01*
X0057779Y0052550D01*
X0058196Y0052967D01*
X0058196Y0054635D01*
X0057779Y0055052D01*
X0056528Y0055052D01*
X0053950Y0055052D02*
X0053950Y0052550D01*
X0055499Y0062130D02*
X0055148Y0062481D01*
X0055148Y0063181D01*
X0055499Y0063531D01*
X0055499Y0064340D02*
X0055148Y0064690D01*
X0055148Y0065391D01*
X0055499Y0065741D01*
X0056900Y0065741D01*
X0057250Y0065391D01*
X0057250Y0064690D01*
X0056900Y0064340D01*
X0056199Y0064690D02*
X0056199Y0065741D01*
X0056199Y0064690D02*
X0055849Y0064340D01*
X0055499Y0064340D01*
X0056900Y0063531D02*
X0057250Y0063181D01*
X0057250Y0062481D01*
X0056900Y0062130D01*
X0055499Y0062130D01*
X0065500Y0082150D02*
X0065150Y0082500D01*
X0065150Y0083901D01*
X0065500Y0084252D01*
X0066201Y0084252D01*
X0066551Y0083901D01*
X0067360Y0083201D02*
X0068761Y0083201D01*
X0068411Y0082150D02*
X0068411Y0084252D01*
X0067360Y0083201D01*
X0066551Y0082500D02*
X0066201Y0082150D01*
X0065500Y0082150D01*
X0065500Y0088950D02*
X0065150Y0089300D01*
X0065150Y0090701D01*
X0065500Y0091052D01*
X0066201Y0091052D01*
X0066551Y0090701D01*
X0067360Y0091052D02*
X0067360Y0090001D01*
X0068060Y0090351D01*
X0068411Y0090351D01*
X0068761Y0090001D01*
X0068761Y0089300D01*
X0068411Y0088950D01*
X0067710Y0088950D01*
X0067360Y0089300D01*
X0066551Y0089300D02*
X0066201Y0088950D01*
X0065500Y0088950D01*
X0067360Y0091052D02*
X0068761Y0091052D01*
X0068411Y0093350D02*
X0068761Y0093700D01*
X0068761Y0094051D01*
X0068411Y0094401D01*
X0067710Y0094401D01*
X0067360Y0094751D01*
X0067360Y0095101D01*
X0067710Y0095452D01*
X0068411Y0095452D01*
X0068761Y0095101D01*
X0068761Y0094751D01*
X0068411Y0094401D01*
X0067710Y0094401D02*
X0067360Y0094051D01*
X0067360Y0093700D01*
X0067710Y0093350D01*
X0068411Y0093350D01*
X0066551Y0093700D02*
X0066201Y0093350D01*
X0065500Y0093350D01*
X0065150Y0093700D01*
X0065150Y0095101D01*
X0065500Y0095452D01*
X0066201Y0095452D01*
X0066551Y0095101D01*
X0028850Y0077621D02*
X0028850Y0076920D01*
X0028500Y0076570D01*
X0027099Y0077971D01*
X0028500Y0077971D01*
X0028850Y0077621D01*
X0028500Y0076570D02*
X0027099Y0076570D01*
X0026748Y0076920D01*
X0026748Y0077621D01*
X0027099Y0077971D01*
X0026748Y0075060D02*
X0028850Y0075060D01*
X0028850Y0074360D02*
X0028850Y0075761D01*
X0028500Y0073551D02*
X0028850Y0073201D01*
X0028850Y0072500D01*
X0028500Y0072150D01*
X0027099Y0072150D01*
X0026748Y0072500D01*
X0026748Y0073201D01*
X0027099Y0073551D01*
X0027449Y0074360D02*
X0026748Y0075060D01*
X0025740Y0085350D02*
X0025740Y0085700D01*
X0027141Y0087101D01*
X0027141Y0087452D01*
X0025740Y0087452D01*
X0024931Y0087101D02*
X0024581Y0087452D01*
X0023881Y0087452D01*
X0023530Y0087101D01*
X0023530Y0085700D01*
X0023881Y0085350D01*
X0024581Y0085350D01*
X0024931Y0085700D01*
X0024931Y0089350D02*
X0023530Y0089350D01*
X0024231Y0089350D02*
X0024231Y0091452D01*
X0023530Y0090751D01*
X0022722Y0091101D02*
X0022371Y0091452D01*
X0021671Y0091452D01*
X0021320Y0091101D01*
X0021320Y0089700D01*
X0021671Y0089350D01*
X0022371Y0089350D01*
X0022722Y0089700D01*
X0022601Y0093350D02*
X0021900Y0093350D01*
X0021550Y0093700D01*
X0021550Y0095101D01*
X0021900Y0095452D01*
X0022601Y0095452D01*
X0022951Y0095101D01*
X0023760Y0094751D02*
X0024460Y0095452D01*
X0024460Y0093350D01*
X0023760Y0093350D02*
X0025161Y0093350D01*
X0025970Y0093350D02*
X0027371Y0093350D01*
X0026670Y0093350D02*
X0026670Y0095452D01*
X0025970Y0094751D01*
X0026090Y0091452D02*
X0025740Y0091101D01*
X0026090Y0091452D02*
X0026791Y0091452D01*
X0027141Y0091101D01*
X0027141Y0090751D01*
X0025740Y0089350D01*
X0027141Y0089350D01*
X0022951Y0093700D02*
X0022601Y0093350D01*
D12*
X0018400Y0027500D02*
X0008400Y0027500D01*
X0008400Y0037500D01*
X0018400Y0037500D01*
X0018400Y0027500D01*
X0028400Y0027500D01*
X0038400Y0027500D01*
X0048400Y0027500D01*
X0058400Y0027500D01*
X0058400Y0037500D01*
X0048400Y0037500D01*
X0038400Y0037500D01*
X0028400Y0037500D01*
X0018400Y0037500D01*
X0028400Y0037500D02*
X0028400Y0027500D01*
X0038400Y0027500D02*
X0038400Y0037500D01*
X0048400Y0037500D02*
X0048400Y0027500D01*
X0083830Y0225200D02*
X0084564Y0225200D01*
X0085298Y0225934D01*
X0085298Y0227402D01*
X0086032Y0228136D01*
X0086766Y0228136D01*
X0087500Y0227402D01*
X0087500Y0225934D01*
X0086766Y0225200D01*
X0087500Y0229804D02*
X0086032Y0231272D01*
X0087500Y0232740D01*
X0083096Y0232740D01*
X0083096Y0234408D02*
X0083096Y0235876D01*
X0083096Y0235142D02*
X0087500Y0235142D01*
X0087500Y0234408D02*
X0087500Y0235876D01*
X0088800Y0235200D02*
X0088800Y0245200D01*
X0088800Y0255200D01*
X0088800Y0265200D01*
X0098800Y0265200D01*
X0098800Y0255200D01*
X0098800Y0245200D01*
X0098800Y0235200D01*
X0098800Y0225200D01*
X0088800Y0225200D01*
X0088800Y0235200D01*
X0098800Y0235200D01*
X0087500Y0237477D02*
X0083096Y0237477D01*
X0084564Y0238945D01*
X0083096Y0240413D01*
X0087500Y0240413D01*
X0087500Y0229804D02*
X0083096Y0229804D01*
X0083830Y0228136D02*
X0083096Y0227402D01*
X0083096Y0225934D01*
X0083830Y0225200D01*
D13*
X0053400Y0025000D02*
X0053400Y0002500D01*
X0043400Y0002500D02*
X0043400Y0025000D01*
X0033400Y0025000D02*
X0033400Y0002500D01*
X0023400Y0002500D02*
X0023400Y0025000D01*
X0013400Y0025000D02*
X0013400Y0002500D01*
D14*
X0013400Y0026500D03*
X0023400Y0026500D03*
X0033400Y0026500D03*
X0043400Y0026500D03*
X0053400Y0026500D03*
D15*
X0053400Y0039500D03*
X0043400Y0039500D03*
X0033400Y0039500D03*
X0023400Y0039500D03*
X0013400Y0039500D03*
D16*
X0105000Y0126206D03*
X0105000Y0142994D03*
X0105000Y0164406D03*
X0105000Y0181194D03*
X0105000Y0202406D03*
X0105000Y0219194D03*
X0105000Y0240406D03*
X0105000Y0257194D03*
M02*
