%
M48
M72
T01C0.01200
T02C0.03200
T03C0.03800
T04C0.04000
%
T01
X25650Y57200
X28450Y69400
X28050Y81000
X24450Y80800
X24450Y84000
X28050Y96800
X41850Y90000
X41850Y84000
X41850Y78000
X47450Y78000
X47650Y73600
X48250Y63800
X44450Y60000
X40050Y56400
X38050Y59200
X47450Y84000
X47450Y90000
X53050Y90000
X53050Y84000
X53050Y78000
X60450Y63200
X62450Y66000
X62850Y69600
X64050Y60400
X68850Y66800
X71650Y69600
X69250Y72800
X68450Y76000
X67250Y85600
X70050Y87200
X72050Y95200
X69250Y96800
X66450Y102400
X63650Y104000
X62850Y100400
X59650Y107600
X62450Y109200
X56850Y109200
X57050Y120600
X57050Y125800
X57050Y131000
X62250Y125800
X62250Y120600
X67450Y120600
X67250Y145400
X63650Y145400
X68050Y161200
X66050Y164400
X63250Y168800
X60050Y166400
X65250Y185200
X64050Y194000
X66450Y196800
X63250Y204000
X63250Y207600
X68050Y218800
X71250Y204400
X82250Y234800
X87250Y214400
X87250Y210800
X87250Y207200
X94050Y201000
X94050Y197200
X94050Y193400
X94050Y187000
X102450Y184800
X105250Y172800
X102050Y164800
X100050Y160800
X102450Y146800
X105250Y134600
X87250Y112000
X87250Y108800
X87250Y105600
X82050Y99400
X84650Y93600
X84650Y89200
X82850Y77200
X82450Y72200
X94850Y65200
X95650Y62000
X94450Y58800
X94450Y81200
X94450Y84800
X62450Y45800
X59650Y51200
X55250Y59200
X42850Y106800
X72450Y162000
X50650Y200600
X47450Y198600
X47450Y202600
X44250Y200600
X42850Y206400
X32850Y207400
X26450Y222600
X26450Y228200
X26450Y233800
X26450Y239400
X23650Y261200
X45650Y255200
X48850Y258000
X45450Y245400
X48450Y237200
X51250Y234400
X24850Y207400
X25650Y198400
X23250Y195600
X23250Y184400
X5250Y145800
X5050Y138400
X5050Y131000
X5050Y123400
X83650Y256000
X86850Y261600
X101650Y234400
X105250Y228000
X102450Y222800
X102184Y198666
X103250Y257200
T02
X77250Y257000
X77250Y247000
X77250Y237000
X77250Y227000
X77250Y217000
X77250Y207000
X77250Y197000
X77250Y187000
X77250Y177000
X77250Y167000
X77250Y157000
X77250Y147000
X77250Y137000
X77250Y127000
X77250Y117000
X77250Y107000
X77250Y97000
X77250Y87000
X77250Y77000
X77250Y67000
X17250Y67000
X17250Y77000
X17250Y87000
X17250Y97000
X17250Y107000
X17250Y117000
X17250Y127000
X17250Y137000
X17250Y147000
X17250Y157000
X17250Y167000
X17250Y177000
X17250Y187000
X17250Y197000
X17250Y207000
X17250Y217000
X17250Y227000
X17250Y237000
X17250Y247000
X17250Y257000
T03
X95150Y260200
X96150Y250200
X95150Y240200
X96150Y230200
T04
X14850Y45000
X24850Y45000
X34850Y45000
X44850Y45000
X54850Y45000
M30
