G75*
%MOIN*%
%OFA0B0*%
%FSLAX25Y25*%
%IPPOS*%
%LPD*%
%AMOC8*
5,1,8,0,0,1.08239X$1,22.5*
%
%ADD10C,0.00000*%
%ADD11C,0.00500*%
%ADD12C,0.00400*%
%ADD13C,0.01200*%
%ADD14C,0.00300*%
%ADD15C,0.00600*%
%ADD16C,0.00200*%
%ADD17R,0.00394X0.05512*%
%ADD18R,0.00787X0.05512*%
%ADD19R,0.00787X0.00394*%
D10*
X0001000Y0037800D02*
X0001000Y0266800D01*
X0109600Y0266800D01*
X0109600Y0037800D01*
X0001000Y0037800D01*
D11*
X0030252Y0069052D02*
X0061748Y0069052D01*
X0061748Y0100548D01*
X0030252Y0100548D01*
X0030252Y0069052D01*
X0030700Y0099300D02*
X0030702Y0099356D01*
X0030708Y0099413D01*
X0030718Y0099468D01*
X0030732Y0099523D01*
X0030749Y0099577D01*
X0030771Y0099629D01*
X0030796Y0099679D01*
X0030824Y0099728D01*
X0030856Y0099775D01*
X0030891Y0099819D01*
X0030929Y0099861D01*
X0030970Y0099900D01*
X0031014Y0099935D01*
X0031060Y0099968D01*
X0031108Y0099997D01*
X0031158Y0100023D01*
X0031210Y0100046D01*
X0031264Y0100064D01*
X0031318Y0100079D01*
X0031373Y0100090D01*
X0031429Y0100097D01*
X0031486Y0100100D01*
X0031542Y0100099D01*
X0031599Y0100094D01*
X0031654Y0100085D01*
X0031709Y0100072D01*
X0031763Y0100055D01*
X0031816Y0100035D01*
X0031867Y0100011D01*
X0031916Y0099983D01*
X0031963Y0099952D01*
X0032008Y0099918D01*
X0032051Y0099880D01*
X0032090Y0099840D01*
X0032127Y0099797D01*
X0032160Y0099752D01*
X0032190Y0099704D01*
X0032217Y0099654D01*
X0032240Y0099603D01*
X0032260Y0099550D01*
X0032276Y0099496D01*
X0032288Y0099440D01*
X0032296Y0099385D01*
X0032300Y0099328D01*
X0032300Y0099272D01*
X0032296Y0099215D01*
X0032288Y0099160D01*
X0032276Y0099104D01*
X0032260Y0099050D01*
X0032240Y0098997D01*
X0032217Y0098946D01*
X0032190Y0098896D01*
X0032160Y0098848D01*
X0032127Y0098803D01*
X0032090Y0098760D01*
X0032051Y0098720D01*
X0032008Y0098682D01*
X0031963Y0098648D01*
X0031916Y0098617D01*
X0031867Y0098589D01*
X0031816Y0098565D01*
X0031763Y0098545D01*
X0031709Y0098528D01*
X0031654Y0098515D01*
X0031599Y0098506D01*
X0031542Y0098501D01*
X0031486Y0098500D01*
X0031429Y0098503D01*
X0031373Y0098510D01*
X0031318Y0098521D01*
X0031264Y0098536D01*
X0031210Y0098554D01*
X0031158Y0098577D01*
X0031108Y0098603D01*
X0031060Y0098632D01*
X0031014Y0098665D01*
X0030970Y0098700D01*
X0030929Y0098739D01*
X0030891Y0098781D01*
X0030856Y0098825D01*
X0030824Y0098872D01*
X0030796Y0098921D01*
X0030771Y0098971D01*
X0030749Y0099023D01*
X0030732Y0099077D01*
X0030718Y0099132D01*
X0030708Y0099187D01*
X0030702Y0099244D01*
X0030700Y0099300D01*
X0042932Y0109050D02*
X0045267Y0109050D01*
X0044099Y0109050D02*
X0044099Y0112553D01*
X0045267Y0111385D01*
X0046615Y0112553D02*
X0046615Y0109634D01*
X0047199Y0109050D01*
X0048366Y0109050D01*
X0048950Y0109634D01*
X0048950Y0112553D01*
X0047834Y0133284D02*
X0047250Y0133868D01*
X0047250Y0135035D01*
X0047834Y0135619D01*
X0047250Y0136967D02*
X0047250Y0139302D01*
X0047250Y0138135D02*
X0050753Y0138135D01*
X0049585Y0136967D01*
X0050169Y0135619D02*
X0050753Y0135035D01*
X0050753Y0133868D01*
X0050169Y0133284D01*
X0047834Y0133284D01*
X0047864Y0151450D02*
X0049032Y0152618D01*
X0048448Y0152618D02*
X0047864Y0153201D01*
X0047864Y0154369D01*
X0048448Y0154953D01*
X0050199Y0154953D01*
X0050199Y0151450D01*
X0050199Y0152618D02*
X0048448Y0152618D01*
X0046516Y0151450D02*
X0046516Y0154953D01*
X0044181Y0151450D01*
X0044181Y0154953D01*
X0042833Y0153785D02*
X0041665Y0154953D01*
X0041665Y0151450D01*
X0040498Y0151450D02*
X0042833Y0151450D01*
X0037950Y0166250D02*
X0037950Y0169753D01*
X0036199Y0169753D01*
X0035615Y0169169D01*
X0035615Y0168001D01*
X0036199Y0167418D01*
X0037950Y0167418D01*
X0036782Y0167418D02*
X0035615Y0166250D01*
X0034267Y0166250D02*
X0031932Y0168585D01*
X0031932Y0169169D01*
X0032515Y0169753D01*
X0033683Y0169753D01*
X0034267Y0169169D01*
X0034267Y0166250D02*
X0031932Y0166250D01*
X0032415Y0174250D02*
X0033582Y0175418D01*
X0032999Y0175418D02*
X0034750Y0175418D01*
X0034750Y0174250D02*
X0034750Y0177753D01*
X0032999Y0177753D01*
X0032415Y0177169D01*
X0032415Y0176001D01*
X0032999Y0175418D01*
X0031067Y0176585D02*
X0029899Y0177753D01*
X0029899Y0174250D01*
X0028732Y0174250D02*
X0031067Y0174250D01*
X0037475Y0192284D02*
X0036891Y0192868D01*
X0036891Y0194035D01*
X0037475Y0194619D01*
X0040394Y0194619D01*
X0039810Y0195967D02*
X0040394Y0196551D01*
X0040394Y0197718D01*
X0039810Y0198302D01*
X0039226Y0198302D01*
X0036891Y0195967D01*
X0036891Y0198302D01*
X0037153Y0201284D02*
X0037153Y0203035D01*
X0036569Y0203619D01*
X0035401Y0203619D01*
X0034818Y0203035D01*
X0034818Y0201284D01*
X0034818Y0202451D02*
X0033650Y0203619D01*
X0034234Y0204967D02*
X0033650Y0205551D01*
X0033650Y0206718D01*
X0034234Y0207302D01*
X0034818Y0207302D01*
X0035401Y0206718D01*
X0035401Y0206135D01*
X0035401Y0206718D02*
X0035985Y0207302D01*
X0036569Y0207302D01*
X0037153Y0206718D01*
X0037153Y0205551D01*
X0036569Y0204967D01*
X0037153Y0201284D02*
X0033650Y0201284D01*
X0029153Y0201284D02*
X0029153Y0203035D01*
X0028569Y0203619D01*
X0027401Y0203619D01*
X0026818Y0203035D01*
X0026818Y0201284D01*
X0026818Y0202451D02*
X0025650Y0203619D01*
X0027401Y0204967D02*
X0027401Y0207302D01*
X0025650Y0206718D02*
X0029153Y0206718D01*
X0027401Y0204967D01*
X0025650Y0201284D02*
X0029153Y0201284D01*
X0037475Y0192284D02*
X0040394Y0192284D01*
X0047082Y0217550D02*
X0048249Y0217550D01*
X0048833Y0218134D01*
X0050181Y0218134D02*
X0050181Y0221053D01*
X0048833Y0220469D02*
X0048249Y0221053D01*
X0047082Y0221053D01*
X0046498Y0220469D01*
X0046498Y0219885D01*
X0047082Y0219301D01*
X0046498Y0218718D01*
X0046498Y0218134D01*
X0047082Y0217550D01*
X0047082Y0219301D02*
X0047665Y0219301D01*
X0050181Y0218134D02*
X0050765Y0217550D01*
X0051932Y0217550D01*
X0052516Y0218134D01*
X0052516Y0221053D01*
X0067650Y0221951D02*
X0068234Y0221367D01*
X0067650Y0221951D02*
X0067650Y0223118D01*
X0068234Y0223702D01*
X0068818Y0223702D01*
X0069401Y0223118D01*
X0069401Y0222535D01*
X0069401Y0223118D02*
X0069985Y0223702D01*
X0070569Y0223702D01*
X0071153Y0223118D01*
X0071153Y0221951D01*
X0070569Y0221367D01*
X0071153Y0218851D02*
X0069985Y0217684D01*
X0070569Y0216336D02*
X0071153Y0215752D01*
X0071153Y0214584D01*
X0070569Y0214001D01*
X0068234Y0214001D01*
X0067650Y0214584D01*
X0067650Y0215752D01*
X0068234Y0216336D01*
X0067650Y0217684D02*
X0067650Y0220019D01*
X0067650Y0218851D02*
X0071153Y0218851D01*
X0029153Y0242984D02*
X0028569Y0242401D01*
X0026234Y0242401D01*
X0025650Y0242984D01*
X0025650Y0244152D01*
X0026234Y0244736D01*
X0025650Y0246084D02*
X0025650Y0248419D01*
X0025650Y0247251D02*
X0029153Y0247251D01*
X0027985Y0246084D01*
X0028569Y0244736D02*
X0029153Y0244152D01*
X0029153Y0242984D01*
X0027401Y0249767D02*
X0027401Y0252102D01*
X0025650Y0251518D02*
X0029153Y0251518D01*
X0027401Y0249767D01*
X0067265Y0053753D02*
X0067265Y0050250D01*
X0066098Y0050250D02*
X0068433Y0050250D01*
X0068433Y0052585D02*
X0067265Y0053753D01*
X0069781Y0050250D02*
X0072116Y0050250D01*
X0072116Y0053753D01*
D12*
X0056600Y0104200D02*
X0056600Y0107002D01*
X0055199Y0107002D01*
X0054732Y0106535D01*
X0054732Y0105601D01*
X0055199Y0105134D01*
X0056600Y0105134D01*
X0053653Y0104667D02*
X0053186Y0104200D01*
X0052252Y0104200D01*
X0051785Y0104667D01*
X0051785Y0105134D01*
X0052252Y0105601D01*
X0053186Y0105601D01*
X0053653Y0106068D01*
X0053653Y0106535D01*
X0053186Y0107002D01*
X0052252Y0107002D01*
X0051785Y0106535D01*
X0050707Y0105601D02*
X0050707Y0104667D01*
X0050240Y0104200D01*
X0049306Y0104200D01*
X0048839Y0104667D01*
X0048839Y0105601D01*
X0049306Y0106068D01*
X0050240Y0106068D01*
X0050707Y0105601D01*
X0047760Y0104667D02*
X0047293Y0104200D01*
X0046359Y0104200D01*
X0045892Y0104667D01*
X0044814Y0104667D02*
X0044347Y0104200D01*
X0043413Y0104200D01*
X0042946Y0104667D01*
X0042946Y0105601D01*
X0043413Y0106068D01*
X0043880Y0106068D01*
X0044814Y0105601D01*
X0044814Y0107002D01*
X0042946Y0107002D01*
X0045892Y0106535D02*
X0046359Y0107002D01*
X0047293Y0107002D01*
X0047760Y0106535D01*
X0047760Y0104667D01*
X0038921Y0104200D02*
X0037053Y0104200D01*
X0035974Y0104200D02*
X0035974Y0107002D01*
X0034573Y0107002D01*
X0034106Y0106535D01*
X0034106Y0105601D01*
X0034573Y0105134D01*
X0035974Y0105134D01*
X0038921Y0104200D02*
X0038921Y0107002D01*
D13*
X0103400Y0089600D02*
X0103400Y0054400D01*
D14*
X0100850Y0057417D02*
X0097948Y0057417D01*
X0097948Y0056450D02*
X0097948Y0058385D01*
X0097948Y0059396D02*
X0100366Y0059396D01*
X0100850Y0059880D01*
X0100850Y0060848D01*
X0100366Y0061331D01*
X0097948Y0061331D01*
X0098431Y0062343D02*
X0097948Y0062827D01*
X0097948Y0063794D01*
X0098431Y0064278D01*
X0100366Y0064278D01*
X0100850Y0063794D01*
X0100850Y0062827D01*
X0100366Y0062343D01*
X0098431Y0062343D01*
X0097948Y0065289D02*
X0099883Y0067224D01*
X0099399Y0066741D02*
X0100850Y0065289D01*
X0100850Y0067224D02*
X0097948Y0067224D01*
X0098915Y0068236D02*
X0097948Y0069203D01*
X0098915Y0070171D01*
X0100850Y0070171D01*
X0100850Y0071182D02*
X0100850Y0073117D01*
X0097948Y0073117D01*
X0097948Y0071182D01*
X0099399Y0072150D02*
X0099399Y0073117D01*
X0099399Y0074129D02*
X0099883Y0074613D01*
X0099883Y0076064D01*
X0100850Y0076064D02*
X0097948Y0076064D01*
X0097948Y0074613D01*
X0098431Y0074129D01*
X0099399Y0074129D01*
X0099883Y0075096D02*
X0100850Y0074129D01*
X0100366Y0077075D02*
X0100850Y0077559D01*
X0100850Y0079010D01*
X0097948Y0079010D01*
X0097948Y0077559D01*
X0098431Y0077075D01*
X0098915Y0077075D01*
X0099399Y0077559D01*
X0099399Y0079010D01*
X0099399Y0077559D02*
X0099883Y0077075D01*
X0100366Y0077075D01*
X0100366Y0082969D02*
X0098431Y0082969D01*
X0097948Y0083452D01*
X0097948Y0084420D01*
X0098431Y0084903D01*
X0100366Y0084903D01*
X0100850Y0084420D01*
X0100850Y0083452D01*
X0100366Y0082969D01*
X0097948Y0085915D02*
X0097948Y0087850D01*
X0097948Y0086883D02*
X0100850Y0086883D01*
X0099399Y0070171D02*
X0099399Y0068236D01*
X0098915Y0068236D02*
X0100850Y0068236D01*
D15*
X0067059Y0192213D02*
X0042141Y0192213D01*
X0042141Y0210187D01*
X0067059Y0210187D01*
X0067059Y0192213D01*
X0056400Y0222800D02*
X0044000Y0222800D01*
X0043924Y0222802D01*
X0043848Y0222808D01*
X0043773Y0222817D01*
X0043698Y0222831D01*
X0043624Y0222848D01*
X0043551Y0222869D01*
X0043479Y0222893D01*
X0043408Y0222922D01*
X0043339Y0222953D01*
X0043272Y0222988D01*
X0043207Y0223027D01*
X0043143Y0223069D01*
X0043082Y0223114D01*
X0043023Y0223162D01*
X0042967Y0223213D01*
X0042913Y0223267D01*
X0042862Y0223323D01*
X0042814Y0223382D01*
X0042769Y0223443D01*
X0042727Y0223507D01*
X0042688Y0223572D01*
X0042653Y0223639D01*
X0042622Y0223708D01*
X0042593Y0223779D01*
X0042569Y0223851D01*
X0042548Y0223924D01*
X0042531Y0223998D01*
X0042517Y0224073D01*
X0042508Y0224148D01*
X0042502Y0224224D01*
X0042500Y0224300D01*
X0042500Y0261300D01*
X0042502Y0261376D01*
X0042508Y0261452D01*
X0042517Y0261527D01*
X0042531Y0261602D01*
X0042548Y0261676D01*
X0042569Y0261749D01*
X0042593Y0261821D01*
X0042622Y0261892D01*
X0042653Y0261961D01*
X0042688Y0262028D01*
X0042727Y0262093D01*
X0042769Y0262157D01*
X0042814Y0262218D01*
X0042862Y0262277D01*
X0042913Y0262333D01*
X0042967Y0262387D01*
X0043023Y0262438D01*
X0043082Y0262486D01*
X0043143Y0262531D01*
X0043207Y0262573D01*
X0043272Y0262612D01*
X0043339Y0262647D01*
X0043408Y0262678D01*
X0043479Y0262707D01*
X0043551Y0262731D01*
X0043624Y0262752D01*
X0043698Y0262769D01*
X0043773Y0262783D01*
X0043848Y0262792D01*
X0043924Y0262798D01*
X0044000Y0262800D01*
X0048200Y0262800D01*
X0052200Y0262800D01*
X0056400Y0262800D01*
X0056476Y0262798D01*
X0056552Y0262792D01*
X0056627Y0262783D01*
X0056702Y0262769D01*
X0056776Y0262752D01*
X0056849Y0262731D01*
X0056921Y0262707D01*
X0056992Y0262678D01*
X0057061Y0262647D01*
X0057128Y0262612D01*
X0057193Y0262573D01*
X0057257Y0262531D01*
X0057318Y0262486D01*
X0057377Y0262438D01*
X0057433Y0262387D01*
X0057487Y0262333D01*
X0057538Y0262277D01*
X0057586Y0262218D01*
X0057631Y0262157D01*
X0057673Y0262093D01*
X0057712Y0262028D01*
X0057747Y0261961D01*
X0057778Y0261892D01*
X0057807Y0261821D01*
X0057831Y0261749D01*
X0057852Y0261676D01*
X0057869Y0261602D01*
X0057883Y0261527D01*
X0057892Y0261452D01*
X0057898Y0261376D01*
X0057900Y0261300D01*
X0057900Y0224300D01*
X0057898Y0224224D01*
X0057892Y0224148D01*
X0057883Y0224073D01*
X0057869Y0223998D01*
X0057852Y0223924D01*
X0057831Y0223851D01*
X0057807Y0223779D01*
X0057778Y0223708D01*
X0057747Y0223639D01*
X0057712Y0223572D01*
X0057673Y0223507D01*
X0057631Y0223443D01*
X0057586Y0223382D01*
X0057538Y0223323D01*
X0057487Y0223267D01*
X0057433Y0223213D01*
X0057377Y0223162D01*
X0057318Y0223114D01*
X0057257Y0223069D01*
X0057193Y0223027D01*
X0057128Y0222988D01*
X0057061Y0222953D01*
X0056992Y0222922D01*
X0056921Y0222893D01*
X0056849Y0222869D01*
X0056776Y0222848D01*
X0056702Y0222831D01*
X0056627Y0222817D01*
X0056552Y0222808D01*
X0056476Y0222802D01*
X0056400Y0222800D01*
X0043841Y0206000D02*
X0043843Y0206084D01*
X0043849Y0206169D01*
X0043859Y0206252D01*
X0043873Y0206336D01*
X0043890Y0206418D01*
X0043912Y0206500D01*
X0043937Y0206580D01*
X0043966Y0206659D01*
X0043999Y0206737D01*
X0044035Y0206813D01*
X0044075Y0206888D01*
X0044119Y0206960D01*
X0044165Y0207031D01*
X0044215Y0207099D01*
X0044268Y0207164D01*
X0044324Y0207227D01*
X0044383Y0207288D01*
X0044445Y0207345D01*
X0044509Y0207400D01*
X0044576Y0207451D01*
X0044645Y0207500D01*
X0044717Y0207545D01*
X0044790Y0207586D01*
X0044865Y0207624D01*
X0044942Y0207659D01*
X0045021Y0207690D01*
X0045101Y0207717D01*
X0045182Y0207740D01*
X0045264Y0207760D01*
X0045347Y0207776D01*
X0045430Y0207788D01*
X0045515Y0207796D01*
X0045599Y0207800D01*
X0045683Y0207800D01*
X0045767Y0207796D01*
X0045852Y0207788D01*
X0045935Y0207776D01*
X0046018Y0207760D01*
X0046100Y0207740D01*
X0046181Y0207717D01*
X0046261Y0207690D01*
X0046340Y0207659D01*
X0046417Y0207624D01*
X0046492Y0207586D01*
X0046565Y0207545D01*
X0046637Y0207500D01*
X0046706Y0207451D01*
X0046773Y0207400D01*
X0046837Y0207345D01*
X0046899Y0207288D01*
X0046958Y0207227D01*
X0047014Y0207164D01*
X0047067Y0207099D01*
X0047117Y0207031D01*
X0047163Y0206960D01*
X0047207Y0206888D01*
X0047247Y0206813D01*
X0047283Y0206737D01*
X0047316Y0206659D01*
X0047345Y0206580D01*
X0047370Y0206500D01*
X0047392Y0206418D01*
X0047409Y0206336D01*
X0047423Y0206252D01*
X0047433Y0206169D01*
X0047439Y0206084D01*
X0047441Y0206000D01*
X0047439Y0205916D01*
X0047433Y0205831D01*
X0047423Y0205748D01*
X0047409Y0205664D01*
X0047392Y0205582D01*
X0047370Y0205500D01*
X0047345Y0205420D01*
X0047316Y0205341D01*
X0047283Y0205263D01*
X0047247Y0205187D01*
X0047207Y0205112D01*
X0047163Y0205040D01*
X0047117Y0204969D01*
X0047067Y0204901D01*
X0047014Y0204836D01*
X0046958Y0204773D01*
X0046899Y0204712D01*
X0046837Y0204655D01*
X0046773Y0204600D01*
X0046706Y0204549D01*
X0046637Y0204500D01*
X0046565Y0204455D01*
X0046492Y0204414D01*
X0046417Y0204376D01*
X0046340Y0204341D01*
X0046261Y0204310D01*
X0046181Y0204283D01*
X0046100Y0204260D01*
X0046018Y0204240D01*
X0045935Y0204224D01*
X0045852Y0204212D01*
X0045767Y0204204D01*
X0045683Y0204200D01*
X0045599Y0204200D01*
X0045515Y0204204D01*
X0045430Y0204212D01*
X0045347Y0204224D01*
X0045264Y0204240D01*
X0045182Y0204260D01*
X0045101Y0204283D01*
X0045021Y0204310D01*
X0044942Y0204341D01*
X0044865Y0204376D01*
X0044790Y0204414D01*
X0044717Y0204455D01*
X0044645Y0204500D01*
X0044576Y0204549D01*
X0044509Y0204600D01*
X0044445Y0204655D01*
X0044383Y0204712D01*
X0044324Y0204773D01*
X0044268Y0204836D01*
X0044215Y0204901D01*
X0044165Y0204969D01*
X0044119Y0205040D01*
X0044075Y0205112D01*
X0044035Y0205187D01*
X0043999Y0205263D01*
X0043966Y0205341D01*
X0043937Y0205420D01*
X0043912Y0205500D01*
X0043890Y0205582D01*
X0043873Y0205664D01*
X0043859Y0205748D01*
X0043849Y0205831D01*
X0043843Y0205916D01*
X0043841Y0206000D01*
X0048200Y0262800D02*
X0048202Y0262712D01*
X0048208Y0262623D01*
X0048218Y0262535D01*
X0048231Y0262448D01*
X0048249Y0262361D01*
X0048270Y0262275D01*
X0048295Y0262190D01*
X0048324Y0262107D01*
X0048357Y0262024D01*
X0048393Y0261944D01*
X0048432Y0261865D01*
X0048475Y0261787D01*
X0048522Y0261712D01*
X0048572Y0261639D01*
X0048625Y0261568D01*
X0048681Y0261499D01*
X0048740Y0261433D01*
X0048802Y0261370D01*
X0048866Y0261310D01*
X0048933Y0261252D01*
X0049003Y0261198D01*
X0049075Y0261146D01*
X0049149Y0261098D01*
X0049226Y0261053D01*
X0049304Y0261012D01*
X0049384Y0260974D01*
X0049465Y0260940D01*
X0049548Y0260909D01*
X0049633Y0260882D01*
X0049718Y0260859D01*
X0049804Y0260840D01*
X0049892Y0260824D01*
X0049979Y0260812D01*
X0050067Y0260804D01*
X0050156Y0260800D01*
X0050244Y0260800D01*
X0050333Y0260804D01*
X0050421Y0260812D01*
X0050508Y0260824D01*
X0050596Y0260840D01*
X0050682Y0260859D01*
X0050767Y0260882D01*
X0050852Y0260909D01*
X0050935Y0260940D01*
X0051016Y0260974D01*
X0051096Y0261012D01*
X0051174Y0261053D01*
X0051251Y0261098D01*
X0051325Y0261146D01*
X0051397Y0261198D01*
X0051467Y0261252D01*
X0051534Y0261310D01*
X0051598Y0261370D01*
X0051660Y0261433D01*
X0051719Y0261499D01*
X0051775Y0261568D01*
X0051828Y0261639D01*
X0051878Y0261712D01*
X0051925Y0261787D01*
X0051968Y0261865D01*
X0052007Y0261944D01*
X0052043Y0262024D01*
X0052076Y0262107D01*
X0052105Y0262190D01*
X0052130Y0262275D01*
X0052151Y0262361D01*
X0052169Y0262448D01*
X0052182Y0262535D01*
X0052192Y0262623D01*
X0052198Y0262712D01*
X0052200Y0262800D01*
D16*
X0056500Y0262800D02*
X0056500Y0222800D01*
X0066159Y0209287D02*
X0066159Y0193113D01*
X0043041Y0193113D01*
X0043041Y0209287D01*
X0066159Y0209287D01*
D17*
X0067483Y0153200D03*
D18*
X0052326Y0153200D03*
D19*
X0052720Y0150641D03*
X0052720Y0155759D03*
M02*
