G75*
%MOIN*%
%OFA0B0*%
%FSLAX25Y25*%
%IPPOS*%
%LPD*%
%AMOC8*
5,1,8,0,0,1.08239X$1,22.5*
%
%ADD10C,0.00000*%
%ADD11R,0.06400X0.06400*%
%ADD12C,0.06400*%
%ADD13R,0.06699X0.05518*%
%ADD14R,0.05518X0.06306*%
%ADD15R,0.00787X0.02362*%
%ADD16C,0.01187*%
%ADD17R,0.16935X0.16935*%
%ADD18R,0.12211X0.08274*%
%ADD19R,0.06109X0.01581*%
%ADD20C,0.06400*%
%ADD21R,0.04731X0.04337*%
%ADD22R,0.01600X0.04300*%
%ADD23OC8,0.07000*%
%ADD24C,0.07000*%
%ADD25R,0.08400X0.03000*%
%ADD26R,0.04042X0.03313*%
%ADD27R,0.03313X0.04042*%
%ADD28R,0.04337X0.04731*%
%ADD29R,0.02132X0.04928*%
%ADD30R,0.02880X0.04928*%
D10*
X0002450Y0037800D02*
X0002450Y0266800D01*
X0111050Y0266800D01*
X0111050Y0037800D01*
X0002450Y0037800D01*
D11*
X0017250Y0257000D03*
D12*
X0017250Y0247000D03*
X0017250Y0237000D03*
X0017250Y0227000D03*
X0017250Y0217000D03*
X0017250Y0207000D03*
X0017250Y0197000D03*
X0017250Y0187000D03*
X0017250Y0177000D03*
X0017250Y0167000D03*
X0017250Y0157000D03*
X0017250Y0147000D03*
X0017250Y0137000D03*
X0017250Y0127000D03*
X0017250Y0117000D03*
X0017250Y0107000D03*
X0017250Y0097000D03*
X0017250Y0087000D03*
X0017250Y0077000D03*
X0017250Y0067000D03*
X0077250Y0067000D03*
X0077250Y0077000D03*
X0077250Y0087000D03*
X0077250Y0097000D03*
X0077250Y0107000D03*
X0077250Y0117000D03*
X0077250Y0127000D03*
X0077250Y0137000D03*
X0077250Y0147000D03*
X0077250Y0157000D03*
X0077250Y0167000D03*
X0077250Y0177000D03*
X0077250Y0187000D03*
X0077250Y0197000D03*
X0077250Y0207000D03*
X0077250Y0217000D03*
X0077250Y0227000D03*
X0077250Y0237000D03*
X0077250Y0247000D03*
X0077250Y0257000D03*
D13*
X0050450Y0128337D03*
X0050450Y0120463D03*
D14*
X0066710Y0045600D03*
X0074190Y0045600D03*
D15*
X0044300Y0069052D03*
X0042726Y0069052D03*
D16*
X0042726Y0070430D02*
X0042726Y0070430D01*
X0042726Y0067674D01*
X0042726Y0067674D01*
X0042726Y0070430D01*
X0042726Y0068860D02*
X0042726Y0068860D01*
X0042726Y0070046D02*
X0042726Y0070046D01*
X0044300Y0070430D02*
X0044300Y0070430D01*
X0044300Y0067674D01*
X0044300Y0067674D01*
X0044300Y0070430D01*
X0044300Y0068860D02*
X0044300Y0068860D01*
X0044300Y0070046D02*
X0044300Y0070046D01*
X0045875Y0070430D02*
X0045875Y0070430D01*
X0045875Y0067674D01*
X0045875Y0067674D01*
X0045875Y0070430D01*
X0045875Y0068860D02*
X0045875Y0068860D01*
X0045875Y0070046D02*
X0045875Y0070046D01*
X0047450Y0070430D02*
X0047450Y0070430D01*
X0047450Y0067674D01*
X0047450Y0067674D01*
X0047450Y0070430D01*
X0047450Y0068860D02*
X0047450Y0068860D01*
X0047450Y0070046D02*
X0047450Y0070046D01*
X0049025Y0070430D02*
X0049025Y0070430D01*
X0049025Y0067674D01*
X0049025Y0067674D01*
X0049025Y0070430D01*
X0049025Y0068860D02*
X0049025Y0068860D01*
X0049025Y0070046D02*
X0049025Y0070046D01*
X0050600Y0070430D02*
X0050600Y0070430D01*
X0050600Y0067674D01*
X0050600Y0067674D01*
X0050600Y0070430D01*
X0050600Y0068860D02*
X0050600Y0068860D01*
X0050600Y0070046D02*
X0050600Y0070046D01*
X0052174Y0070430D02*
X0052174Y0070430D01*
X0052174Y0067674D01*
X0052174Y0067674D01*
X0052174Y0070430D01*
X0052174Y0068860D02*
X0052174Y0068860D01*
X0052174Y0070046D02*
X0052174Y0070046D01*
X0053749Y0070430D02*
X0053749Y0070430D01*
X0053749Y0067674D01*
X0053749Y0067674D01*
X0053749Y0070430D01*
X0053749Y0068860D02*
X0053749Y0068860D01*
X0053749Y0070046D02*
X0053749Y0070046D01*
X0055324Y0070430D02*
X0055324Y0070430D01*
X0055324Y0067674D01*
X0055324Y0067674D01*
X0055324Y0070430D01*
X0055324Y0068860D02*
X0055324Y0068860D01*
X0055324Y0070046D02*
X0055324Y0070046D01*
X0056899Y0070430D02*
X0056899Y0070430D01*
X0056899Y0067674D01*
X0056899Y0067674D01*
X0056899Y0070430D01*
X0056899Y0068860D02*
X0056899Y0068860D01*
X0056899Y0070046D02*
X0056899Y0070046D01*
X0058474Y0070430D02*
X0058474Y0070430D01*
X0058474Y0067674D01*
X0058474Y0067674D01*
X0058474Y0070430D01*
X0058474Y0068860D02*
X0058474Y0068860D01*
X0058474Y0070046D02*
X0058474Y0070046D01*
X0060048Y0070430D02*
X0060048Y0070430D01*
X0060048Y0067674D01*
X0060048Y0067674D01*
X0060048Y0070430D01*
X0060048Y0068860D02*
X0060048Y0068860D01*
X0060048Y0070046D02*
X0060048Y0070046D01*
X0061820Y0072202D02*
X0061820Y0072202D01*
X0064576Y0072202D01*
X0064576Y0072202D01*
X0061820Y0072202D01*
X0061820Y0073776D02*
X0061820Y0073776D01*
X0064576Y0073776D01*
X0064576Y0073776D01*
X0061820Y0073776D01*
X0061820Y0075351D02*
X0061820Y0075351D01*
X0064576Y0075351D01*
X0064576Y0075351D01*
X0061820Y0075351D01*
X0061820Y0076926D02*
X0061820Y0076926D01*
X0064576Y0076926D01*
X0064576Y0076926D01*
X0061820Y0076926D01*
X0061820Y0078501D02*
X0061820Y0078501D01*
X0064576Y0078501D01*
X0064576Y0078501D01*
X0061820Y0078501D01*
X0061820Y0080076D02*
X0061820Y0080076D01*
X0064576Y0080076D01*
X0064576Y0080076D01*
X0061820Y0080076D01*
X0061820Y0081650D02*
X0061820Y0081650D01*
X0064576Y0081650D01*
X0064576Y0081650D01*
X0061820Y0081650D01*
X0061820Y0083225D02*
X0061820Y0083225D01*
X0064576Y0083225D01*
X0064576Y0083225D01*
X0061820Y0083225D01*
X0061820Y0084800D02*
X0061820Y0084800D01*
X0064576Y0084800D01*
X0064576Y0084800D01*
X0061820Y0084800D01*
X0061820Y0086375D02*
X0061820Y0086375D01*
X0064576Y0086375D01*
X0064576Y0086375D01*
X0061820Y0086375D01*
X0061820Y0087950D02*
X0061820Y0087950D01*
X0064576Y0087950D01*
X0064576Y0087950D01*
X0061820Y0087950D01*
X0061820Y0089524D02*
X0061820Y0089524D01*
X0064576Y0089524D01*
X0064576Y0089524D01*
X0061820Y0089524D01*
X0061820Y0091099D02*
X0061820Y0091099D01*
X0064576Y0091099D01*
X0064576Y0091099D01*
X0061820Y0091099D01*
X0061820Y0092674D02*
X0061820Y0092674D01*
X0064576Y0092674D01*
X0064576Y0092674D01*
X0061820Y0092674D01*
X0061820Y0094249D02*
X0061820Y0094249D01*
X0064576Y0094249D01*
X0064576Y0094249D01*
X0061820Y0094249D01*
X0061820Y0095824D02*
X0061820Y0095824D01*
X0064576Y0095824D01*
X0064576Y0095824D01*
X0061820Y0095824D01*
X0061820Y0097398D02*
X0061820Y0097398D01*
X0064576Y0097398D01*
X0064576Y0097398D01*
X0061820Y0097398D01*
X0060048Y0099170D02*
X0060048Y0099170D01*
X0060048Y0101926D01*
X0060048Y0101926D01*
X0060048Y0099170D01*
X0060048Y0100356D02*
X0060048Y0100356D01*
X0060048Y0101542D02*
X0060048Y0101542D01*
X0058474Y0099170D02*
X0058474Y0099170D01*
X0058474Y0101926D01*
X0058474Y0101926D01*
X0058474Y0099170D01*
X0058474Y0100356D02*
X0058474Y0100356D01*
X0058474Y0101542D02*
X0058474Y0101542D01*
X0056899Y0099170D02*
X0056899Y0099170D01*
X0056899Y0101926D01*
X0056899Y0101926D01*
X0056899Y0099170D01*
X0056899Y0100356D02*
X0056899Y0100356D01*
X0056899Y0101542D02*
X0056899Y0101542D01*
X0055324Y0099170D02*
X0055324Y0099170D01*
X0055324Y0101926D01*
X0055324Y0101926D01*
X0055324Y0099170D01*
X0055324Y0100356D02*
X0055324Y0100356D01*
X0055324Y0101542D02*
X0055324Y0101542D01*
X0053749Y0099170D02*
X0053749Y0099170D01*
X0053749Y0101926D01*
X0053749Y0101926D01*
X0053749Y0099170D01*
X0053749Y0100356D02*
X0053749Y0100356D01*
X0053749Y0101542D02*
X0053749Y0101542D01*
X0052174Y0099170D02*
X0052174Y0099170D01*
X0052174Y0101926D01*
X0052174Y0101926D01*
X0052174Y0099170D01*
X0052174Y0100356D02*
X0052174Y0100356D01*
X0052174Y0101542D02*
X0052174Y0101542D01*
X0050600Y0099170D02*
X0050600Y0099170D01*
X0050600Y0101926D01*
X0050600Y0101926D01*
X0050600Y0099170D01*
X0050600Y0100356D02*
X0050600Y0100356D01*
X0050600Y0101542D02*
X0050600Y0101542D01*
X0049025Y0099170D02*
X0049025Y0099170D01*
X0049025Y0101926D01*
X0049025Y0101926D01*
X0049025Y0099170D01*
X0049025Y0100356D02*
X0049025Y0100356D01*
X0049025Y0101542D02*
X0049025Y0101542D01*
X0047450Y0099170D02*
X0047450Y0099170D01*
X0047450Y0101926D01*
X0047450Y0101926D01*
X0047450Y0099170D01*
X0047450Y0100356D02*
X0047450Y0100356D01*
X0047450Y0101542D02*
X0047450Y0101542D01*
X0045875Y0099170D02*
X0045875Y0099170D01*
X0045875Y0101926D01*
X0045875Y0101926D01*
X0045875Y0099170D01*
X0045875Y0100356D02*
X0045875Y0100356D01*
X0045875Y0101542D02*
X0045875Y0101542D01*
X0044300Y0099170D02*
X0044300Y0099170D01*
X0044300Y0101926D01*
X0044300Y0101926D01*
X0044300Y0099170D01*
X0044300Y0100356D02*
X0044300Y0100356D01*
X0044300Y0101542D02*
X0044300Y0101542D01*
X0042726Y0099170D02*
X0042726Y0099170D01*
X0042726Y0101926D01*
X0042726Y0101926D01*
X0042726Y0099170D01*
X0042726Y0100356D02*
X0042726Y0100356D01*
X0042726Y0101542D02*
X0042726Y0101542D01*
X0041151Y0099170D02*
X0041151Y0099170D01*
X0041151Y0101926D01*
X0041151Y0101926D01*
X0041151Y0099170D01*
X0041151Y0100356D02*
X0041151Y0100356D01*
X0041151Y0101542D02*
X0041151Y0101542D01*
X0039576Y0099170D02*
X0039576Y0099170D01*
X0039576Y0101926D01*
X0039576Y0101926D01*
X0039576Y0099170D01*
X0039576Y0100356D02*
X0039576Y0100356D01*
X0039576Y0101542D02*
X0039576Y0101542D01*
X0038001Y0099170D02*
X0038001Y0099170D01*
X0038001Y0101926D01*
X0038001Y0101926D01*
X0038001Y0099170D01*
X0038001Y0100356D02*
X0038001Y0100356D01*
X0038001Y0101542D02*
X0038001Y0101542D01*
X0036426Y0099170D02*
X0036426Y0099170D01*
X0036426Y0101926D01*
X0036426Y0101926D01*
X0036426Y0099170D01*
X0036426Y0100356D02*
X0036426Y0100356D01*
X0036426Y0101542D02*
X0036426Y0101542D01*
X0034852Y0099170D02*
X0034852Y0099170D01*
X0034852Y0101926D01*
X0034852Y0101926D01*
X0034852Y0099170D01*
X0034852Y0100356D02*
X0034852Y0100356D01*
X0034852Y0101542D02*
X0034852Y0101542D01*
X0033080Y0097398D02*
X0033080Y0097398D01*
X0030324Y0097398D01*
X0030324Y0097398D01*
X0033080Y0097398D01*
X0033080Y0095824D02*
X0033080Y0095824D01*
X0030324Y0095824D01*
X0030324Y0095824D01*
X0033080Y0095824D01*
X0033080Y0094249D02*
X0033080Y0094249D01*
X0030324Y0094249D01*
X0030324Y0094249D01*
X0033080Y0094249D01*
X0033080Y0092674D02*
X0033080Y0092674D01*
X0030324Y0092674D01*
X0030324Y0092674D01*
X0033080Y0092674D01*
X0033080Y0091099D02*
X0033080Y0091099D01*
X0030324Y0091099D01*
X0030324Y0091099D01*
X0033080Y0091099D01*
X0033080Y0089524D02*
X0033080Y0089524D01*
X0030324Y0089524D01*
X0030324Y0089524D01*
X0033080Y0089524D01*
X0033080Y0087950D02*
X0033080Y0087950D01*
X0030324Y0087950D01*
X0030324Y0087950D01*
X0033080Y0087950D01*
X0033080Y0086375D02*
X0033080Y0086375D01*
X0030324Y0086375D01*
X0030324Y0086375D01*
X0033080Y0086375D01*
X0033080Y0084800D02*
X0033080Y0084800D01*
X0030324Y0084800D01*
X0030324Y0084800D01*
X0033080Y0084800D01*
X0033080Y0083225D02*
X0033080Y0083225D01*
X0030324Y0083225D01*
X0030324Y0083225D01*
X0033080Y0083225D01*
X0033080Y0081650D02*
X0033080Y0081650D01*
X0030324Y0081650D01*
X0030324Y0081650D01*
X0033080Y0081650D01*
X0033080Y0080076D02*
X0033080Y0080076D01*
X0030324Y0080076D01*
X0030324Y0080076D01*
X0033080Y0080076D01*
X0033080Y0078501D02*
X0033080Y0078501D01*
X0030324Y0078501D01*
X0030324Y0078501D01*
X0033080Y0078501D01*
X0033080Y0076926D02*
X0033080Y0076926D01*
X0030324Y0076926D01*
X0030324Y0076926D01*
X0033080Y0076926D01*
X0033080Y0075351D02*
X0033080Y0075351D01*
X0030324Y0075351D01*
X0030324Y0075351D01*
X0033080Y0075351D01*
X0033080Y0073776D02*
X0033080Y0073776D01*
X0030324Y0073776D01*
X0030324Y0073776D01*
X0033080Y0073776D01*
X0033080Y0072202D02*
X0033080Y0072202D01*
X0030324Y0072202D01*
X0030324Y0072202D01*
X0033080Y0072202D01*
X0034852Y0070430D02*
X0034852Y0070430D01*
X0034852Y0067674D01*
X0034852Y0067674D01*
X0034852Y0070430D01*
X0034852Y0068860D02*
X0034852Y0068860D01*
X0034852Y0070046D02*
X0034852Y0070046D01*
X0036426Y0070430D02*
X0036426Y0070430D01*
X0036426Y0067674D01*
X0036426Y0067674D01*
X0036426Y0070430D01*
X0036426Y0068860D02*
X0036426Y0068860D01*
X0036426Y0070046D02*
X0036426Y0070046D01*
X0038001Y0070430D02*
X0038001Y0070430D01*
X0038001Y0067674D01*
X0038001Y0067674D01*
X0038001Y0070430D01*
X0038001Y0068860D02*
X0038001Y0068860D01*
X0038001Y0070046D02*
X0038001Y0070046D01*
X0039576Y0070430D02*
X0039576Y0070430D01*
X0039576Y0067674D01*
X0039576Y0067674D01*
X0039576Y0070430D01*
X0039576Y0068860D02*
X0039576Y0068860D01*
X0039576Y0070046D02*
X0039576Y0070046D01*
X0041151Y0070430D02*
X0041151Y0070430D01*
X0041151Y0067674D01*
X0041151Y0067674D01*
X0041151Y0070430D01*
X0041151Y0068860D02*
X0041151Y0068860D01*
X0041151Y0070046D02*
X0041151Y0070046D01*
D17*
X0047450Y0084800D03*
D18*
X0099351Y0094835D03*
X0099351Y0049165D03*
D19*
X0089508Y0055268D03*
X0089508Y0057236D03*
X0089508Y0059205D03*
X0089508Y0061173D03*
X0089508Y0063142D03*
X0089508Y0065110D03*
X0089508Y0067079D03*
X0089508Y0069047D03*
X0089508Y0071016D03*
X0089508Y0072984D03*
X0089508Y0074953D03*
X0089508Y0076921D03*
X0089508Y0078890D03*
X0089508Y0080858D03*
X0089508Y0082827D03*
X0089508Y0084795D03*
X0089508Y0086764D03*
X0089508Y0088732D03*
D20*
X0054850Y0048000D02*
X0054850Y0042000D01*
X0044850Y0042000D02*
X0044850Y0048000D01*
X0034850Y0048000D02*
X0034850Y0042000D01*
X0024850Y0042000D02*
X0024850Y0048000D01*
X0014850Y0048000D02*
X0014850Y0042000D01*
D21*
X0028850Y0211054D03*
X0028850Y0217746D03*
X0036850Y0217746D03*
X0036850Y0211054D03*
D22*
X0044534Y0212687D03*
X0047093Y0212687D03*
X0049652Y0212687D03*
X0052211Y0212687D03*
X0054770Y0212687D03*
X0057330Y0212687D03*
X0059889Y0212687D03*
X0062448Y0212687D03*
X0065007Y0212687D03*
X0067566Y0212687D03*
X0067566Y0189713D03*
X0065007Y0189713D03*
X0062448Y0189713D03*
X0059889Y0189713D03*
X0057330Y0189713D03*
X0054770Y0189713D03*
X0052211Y0189713D03*
X0049652Y0189713D03*
X0047093Y0189713D03*
X0044534Y0189713D03*
D23*
X0096150Y0230200D03*
D24*
X0095150Y0240200D03*
X0096150Y0250200D03*
X0095150Y0260200D03*
D25*
X0063750Y0260300D03*
X0063750Y0255300D03*
X0063750Y0250300D03*
X0063750Y0245300D03*
X0063750Y0240300D03*
X0063750Y0235300D03*
X0063750Y0230300D03*
X0063750Y0225300D03*
X0039550Y0225300D03*
X0039550Y0230300D03*
X0039550Y0235300D03*
X0039550Y0240300D03*
X0039550Y0245300D03*
X0039550Y0250300D03*
X0039550Y0255300D03*
X0039550Y0260300D03*
D26*
X0059888Y0218800D03*
X0064612Y0218800D03*
D27*
X0028900Y0255638D03*
X0028900Y0260362D03*
D28*
X0039904Y0176000D03*
X0043304Y0168000D03*
X0046596Y0176000D03*
X0049996Y0168000D03*
D29*
X0060075Y0157039D03*
X0063225Y0157039D03*
X0063225Y0149361D03*
X0060075Y0149361D03*
D30*
X0056552Y0149361D03*
X0056552Y0157039D03*
X0066748Y0157039D03*
X0066748Y0149361D03*
M02*
