G75*
%MOIN*%
%OFA0B0*%
%FSLAX25Y25*%
%IPPOS*%
%LPD*%
%AMOC8*
5,1,8,0,0,1.08239X$1,22.5*
%
%ADD10C,0.00000*%
%ADD11R,0.06299X0.05118*%
%ADD12R,0.05118X0.05906*%
%ADD13C,0.00787*%
%ADD14R,0.16535X0.16535*%
%ADD15R,0.11811X0.07874*%
%ADD16R,0.05709X0.01181*%
%ADD17R,0.04331X0.03937*%
%ADD18R,0.01200X0.03900*%
%ADD19R,0.08000X0.02600*%
%ADD20R,0.03642X0.02913*%
%ADD21R,0.02913X0.03642*%
%ADD22R,0.03937X0.04331*%
%ADD23R,0.01732X0.04528*%
%ADD24R,0.02480X0.04528*%
D10*
X0001000Y0037800D02*
X0001000Y0266800D01*
X0109600Y0266800D01*
X0109600Y0037800D01*
X0001000Y0037800D01*
D11*
X0049000Y0120463D03*
X0049000Y0128337D03*
D12*
X0065260Y0045600D03*
X0072740Y0045600D03*
D13*
X0060370Y0072202D02*
X0060370Y0072202D01*
X0063126Y0072202D01*
X0063126Y0072202D01*
X0060370Y0072202D01*
X0060370Y0073776D02*
X0060370Y0073776D01*
X0063126Y0073776D01*
X0063126Y0073776D01*
X0060370Y0073776D01*
X0060370Y0075351D02*
X0060370Y0075351D01*
X0063126Y0075351D01*
X0063126Y0075351D01*
X0060370Y0075351D01*
X0060370Y0076926D02*
X0060370Y0076926D01*
X0063126Y0076926D01*
X0063126Y0076926D01*
X0060370Y0076926D01*
X0060370Y0078501D02*
X0060370Y0078501D01*
X0063126Y0078501D01*
X0063126Y0078501D01*
X0060370Y0078501D01*
X0060370Y0080076D02*
X0060370Y0080076D01*
X0063126Y0080076D01*
X0063126Y0080076D01*
X0060370Y0080076D01*
X0060370Y0081650D02*
X0060370Y0081650D01*
X0063126Y0081650D01*
X0063126Y0081650D01*
X0060370Y0081650D01*
X0060370Y0083225D02*
X0060370Y0083225D01*
X0063126Y0083225D01*
X0063126Y0083225D01*
X0060370Y0083225D01*
X0060370Y0084800D02*
X0060370Y0084800D01*
X0063126Y0084800D01*
X0063126Y0084800D01*
X0060370Y0084800D01*
X0060370Y0086375D02*
X0060370Y0086375D01*
X0063126Y0086375D01*
X0063126Y0086375D01*
X0060370Y0086375D01*
X0060370Y0087950D02*
X0060370Y0087950D01*
X0063126Y0087950D01*
X0063126Y0087950D01*
X0060370Y0087950D01*
X0060370Y0089524D02*
X0060370Y0089524D01*
X0063126Y0089524D01*
X0063126Y0089524D01*
X0060370Y0089524D01*
X0060370Y0091099D02*
X0060370Y0091099D01*
X0063126Y0091099D01*
X0063126Y0091099D01*
X0060370Y0091099D01*
X0060370Y0092674D02*
X0060370Y0092674D01*
X0063126Y0092674D01*
X0063126Y0092674D01*
X0060370Y0092674D01*
X0060370Y0094249D02*
X0060370Y0094249D01*
X0063126Y0094249D01*
X0063126Y0094249D01*
X0060370Y0094249D01*
X0060370Y0095824D02*
X0060370Y0095824D01*
X0063126Y0095824D01*
X0063126Y0095824D01*
X0060370Y0095824D01*
X0060370Y0097398D02*
X0060370Y0097398D01*
X0063126Y0097398D01*
X0063126Y0097398D01*
X0060370Y0097398D01*
X0058598Y0099170D02*
X0058598Y0099170D01*
X0058598Y0101926D01*
X0058598Y0101926D01*
X0058598Y0099170D01*
X0058598Y0099956D02*
X0058598Y0099956D01*
X0058598Y0100742D02*
X0058598Y0100742D01*
X0058598Y0101528D02*
X0058598Y0101528D01*
X0057024Y0099170D02*
X0057024Y0099170D01*
X0057024Y0101926D01*
X0057024Y0101926D01*
X0057024Y0099170D01*
X0057024Y0099956D02*
X0057024Y0099956D01*
X0057024Y0100742D02*
X0057024Y0100742D01*
X0057024Y0101528D02*
X0057024Y0101528D01*
X0055449Y0099170D02*
X0055449Y0099170D01*
X0055449Y0101926D01*
X0055449Y0101926D01*
X0055449Y0099170D01*
X0055449Y0099956D02*
X0055449Y0099956D01*
X0055449Y0100742D02*
X0055449Y0100742D01*
X0055449Y0101528D02*
X0055449Y0101528D01*
X0053874Y0099170D02*
X0053874Y0099170D01*
X0053874Y0101926D01*
X0053874Y0101926D01*
X0053874Y0099170D01*
X0053874Y0099956D02*
X0053874Y0099956D01*
X0053874Y0100742D02*
X0053874Y0100742D01*
X0053874Y0101528D02*
X0053874Y0101528D01*
X0052299Y0099170D02*
X0052299Y0099170D01*
X0052299Y0101926D01*
X0052299Y0101926D01*
X0052299Y0099170D01*
X0052299Y0099956D02*
X0052299Y0099956D01*
X0052299Y0100742D02*
X0052299Y0100742D01*
X0052299Y0101528D02*
X0052299Y0101528D01*
X0050724Y0099170D02*
X0050724Y0099170D01*
X0050724Y0101926D01*
X0050724Y0101926D01*
X0050724Y0099170D01*
X0050724Y0099956D02*
X0050724Y0099956D01*
X0050724Y0100742D02*
X0050724Y0100742D01*
X0050724Y0101528D02*
X0050724Y0101528D01*
X0049150Y0099170D02*
X0049150Y0099170D01*
X0049150Y0101926D01*
X0049150Y0101926D01*
X0049150Y0099170D01*
X0049150Y0099956D02*
X0049150Y0099956D01*
X0049150Y0100742D02*
X0049150Y0100742D01*
X0049150Y0101528D02*
X0049150Y0101528D01*
X0047575Y0099170D02*
X0047575Y0099170D01*
X0047575Y0101926D01*
X0047575Y0101926D01*
X0047575Y0099170D01*
X0047575Y0099956D02*
X0047575Y0099956D01*
X0047575Y0100742D02*
X0047575Y0100742D01*
X0047575Y0101528D02*
X0047575Y0101528D01*
X0046000Y0099170D02*
X0046000Y0099170D01*
X0046000Y0101926D01*
X0046000Y0101926D01*
X0046000Y0099170D01*
X0046000Y0099956D02*
X0046000Y0099956D01*
X0046000Y0100742D02*
X0046000Y0100742D01*
X0046000Y0101528D02*
X0046000Y0101528D01*
X0044425Y0099170D02*
X0044425Y0099170D01*
X0044425Y0101926D01*
X0044425Y0101926D01*
X0044425Y0099170D01*
X0044425Y0099956D02*
X0044425Y0099956D01*
X0044425Y0100742D02*
X0044425Y0100742D01*
X0044425Y0101528D02*
X0044425Y0101528D01*
X0042850Y0099170D02*
X0042850Y0099170D01*
X0042850Y0101926D01*
X0042850Y0101926D01*
X0042850Y0099170D01*
X0042850Y0099956D02*
X0042850Y0099956D01*
X0042850Y0100742D02*
X0042850Y0100742D01*
X0042850Y0101528D02*
X0042850Y0101528D01*
X0041276Y0099170D02*
X0041276Y0099170D01*
X0041276Y0101926D01*
X0041276Y0101926D01*
X0041276Y0099170D01*
X0041276Y0099956D02*
X0041276Y0099956D01*
X0041276Y0100742D02*
X0041276Y0100742D01*
X0041276Y0101528D02*
X0041276Y0101528D01*
X0039701Y0099170D02*
X0039701Y0099170D01*
X0039701Y0101926D01*
X0039701Y0101926D01*
X0039701Y0099170D01*
X0039701Y0099956D02*
X0039701Y0099956D01*
X0039701Y0100742D02*
X0039701Y0100742D01*
X0039701Y0101528D02*
X0039701Y0101528D01*
X0038126Y0099170D02*
X0038126Y0099170D01*
X0038126Y0101926D01*
X0038126Y0101926D01*
X0038126Y0099170D01*
X0038126Y0099956D02*
X0038126Y0099956D01*
X0038126Y0100742D02*
X0038126Y0100742D01*
X0038126Y0101528D02*
X0038126Y0101528D01*
X0036551Y0099170D02*
X0036551Y0099170D01*
X0036551Y0101926D01*
X0036551Y0101926D01*
X0036551Y0099170D01*
X0036551Y0099956D02*
X0036551Y0099956D01*
X0036551Y0100742D02*
X0036551Y0100742D01*
X0036551Y0101528D02*
X0036551Y0101528D01*
X0034976Y0099170D02*
X0034976Y0099170D01*
X0034976Y0101926D01*
X0034976Y0101926D01*
X0034976Y0099170D01*
X0034976Y0099956D02*
X0034976Y0099956D01*
X0034976Y0100742D02*
X0034976Y0100742D01*
X0034976Y0101528D02*
X0034976Y0101528D01*
X0033402Y0099170D02*
X0033402Y0099170D01*
X0033402Y0101926D01*
X0033402Y0101926D01*
X0033402Y0099170D01*
X0033402Y0099956D02*
X0033402Y0099956D01*
X0033402Y0100742D02*
X0033402Y0100742D01*
X0033402Y0101528D02*
X0033402Y0101528D01*
X0031630Y0097398D02*
X0031630Y0097398D01*
X0028874Y0097398D01*
X0028874Y0097398D01*
X0031630Y0097398D01*
X0031630Y0095824D02*
X0031630Y0095824D01*
X0028874Y0095824D01*
X0028874Y0095824D01*
X0031630Y0095824D01*
X0031630Y0094249D02*
X0031630Y0094249D01*
X0028874Y0094249D01*
X0028874Y0094249D01*
X0031630Y0094249D01*
X0031630Y0092674D02*
X0031630Y0092674D01*
X0028874Y0092674D01*
X0028874Y0092674D01*
X0031630Y0092674D01*
X0031630Y0091099D02*
X0031630Y0091099D01*
X0028874Y0091099D01*
X0028874Y0091099D01*
X0031630Y0091099D01*
X0031630Y0089524D02*
X0031630Y0089524D01*
X0028874Y0089524D01*
X0028874Y0089524D01*
X0031630Y0089524D01*
X0031630Y0087950D02*
X0031630Y0087950D01*
X0028874Y0087950D01*
X0028874Y0087950D01*
X0031630Y0087950D01*
X0031630Y0086375D02*
X0031630Y0086375D01*
X0028874Y0086375D01*
X0028874Y0086375D01*
X0031630Y0086375D01*
X0031630Y0084800D02*
X0031630Y0084800D01*
X0028874Y0084800D01*
X0028874Y0084800D01*
X0031630Y0084800D01*
X0031630Y0083225D02*
X0031630Y0083225D01*
X0028874Y0083225D01*
X0028874Y0083225D01*
X0031630Y0083225D01*
X0031630Y0081650D02*
X0031630Y0081650D01*
X0028874Y0081650D01*
X0028874Y0081650D01*
X0031630Y0081650D01*
X0031630Y0080076D02*
X0031630Y0080076D01*
X0028874Y0080076D01*
X0028874Y0080076D01*
X0031630Y0080076D01*
X0031630Y0078501D02*
X0031630Y0078501D01*
X0028874Y0078501D01*
X0028874Y0078501D01*
X0031630Y0078501D01*
X0031630Y0076926D02*
X0031630Y0076926D01*
X0028874Y0076926D01*
X0028874Y0076926D01*
X0031630Y0076926D01*
X0031630Y0075351D02*
X0031630Y0075351D01*
X0028874Y0075351D01*
X0028874Y0075351D01*
X0031630Y0075351D01*
X0031630Y0073776D02*
X0031630Y0073776D01*
X0028874Y0073776D01*
X0028874Y0073776D01*
X0031630Y0073776D01*
X0031630Y0072202D02*
X0031630Y0072202D01*
X0028874Y0072202D01*
X0028874Y0072202D01*
X0031630Y0072202D01*
X0033402Y0070430D02*
X0033402Y0070430D01*
X0033402Y0067674D01*
X0033402Y0067674D01*
X0033402Y0070430D01*
X0033402Y0068460D02*
X0033402Y0068460D01*
X0033402Y0069246D02*
X0033402Y0069246D01*
X0033402Y0070032D02*
X0033402Y0070032D01*
X0034976Y0070430D02*
X0034976Y0070430D01*
X0034976Y0067674D01*
X0034976Y0067674D01*
X0034976Y0070430D01*
X0034976Y0068460D02*
X0034976Y0068460D01*
X0034976Y0069246D02*
X0034976Y0069246D01*
X0034976Y0070032D02*
X0034976Y0070032D01*
X0036551Y0070430D02*
X0036551Y0070430D01*
X0036551Y0067674D01*
X0036551Y0067674D01*
X0036551Y0070430D01*
X0036551Y0068460D02*
X0036551Y0068460D01*
X0036551Y0069246D02*
X0036551Y0069246D01*
X0036551Y0070032D02*
X0036551Y0070032D01*
X0038126Y0070430D02*
X0038126Y0070430D01*
X0038126Y0067674D01*
X0038126Y0067674D01*
X0038126Y0070430D01*
X0038126Y0068460D02*
X0038126Y0068460D01*
X0038126Y0069246D02*
X0038126Y0069246D01*
X0038126Y0070032D02*
X0038126Y0070032D01*
X0039701Y0070430D02*
X0039701Y0070430D01*
X0039701Y0067674D01*
X0039701Y0067674D01*
X0039701Y0070430D01*
X0039701Y0068460D02*
X0039701Y0068460D01*
X0039701Y0069246D02*
X0039701Y0069246D01*
X0039701Y0070032D02*
X0039701Y0070032D01*
X0041276Y0070430D02*
X0041276Y0070430D01*
X0041276Y0067674D01*
X0041276Y0067674D01*
X0041276Y0070430D01*
X0041276Y0068460D02*
X0041276Y0068460D01*
X0041276Y0069246D02*
X0041276Y0069246D01*
X0041276Y0070032D02*
X0041276Y0070032D01*
X0042850Y0070430D02*
X0042850Y0070430D01*
X0042850Y0067674D01*
X0042850Y0067674D01*
X0042850Y0070430D01*
X0042850Y0068460D02*
X0042850Y0068460D01*
X0042850Y0069246D02*
X0042850Y0069246D01*
X0042850Y0070032D02*
X0042850Y0070032D01*
X0044425Y0070430D02*
X0044425Y0070430D01*
X0044425Y0067674D01*
X0044425Y0067674D01*
X0044425Y0070430D01*
X0044425Y0068460D02*
X0044425Y0068460D01*
X0044425Y0069246D02*
X0044425Y0069246D01*
X0044425Y0070032D02*
X0044425Y0070032D01*
X0046000Y0070430D02*
X0046000Y0070430D01*
X0046000Y0067674D01*
X0046000Y0067674D01*
X0046000Y0070430D01*
X0046000Y0068460D02*
X0046000Y0068460D01*
X0046000Y0069246D02*
X0046000Y0069246D01*
X0046000Y0070032D02*
X0046000Y0070032D01*
X0047575Y0070430D02*
X0047575Y0070430D01*
X0047575Y0067674D01*
X0047575Y0067674D01*
X0047575Y0070430D01*
X0047575Y0068460D02*
X0047575Y0068460D01*
X0047575Y0069246D02*
X0047575Y0069246D01*
X0047575Y0070032D02*
X0047575Y0070032D01*
X0049150Y0070430D02*
X0049150Y0070430D01*
X0049150Y0067674D01*
X0049150Y0067674D01*
X0049150Y0070430D01*
X0049150Y0068460D02*
X0049150Y0068460D01*
X0049150Y0069246D02*
X0049150Y0069246D01*
X0049150Y0070032D02*
X0049150Y0070032D01*
X0050724Y0070430D02*
X0050724Y0070430D01*
X0050724Y0067674D01*
X0050724Y0067674D01*
X0050724Y0070430D01*
X0050724Y0068460D02*
X0050724Y0068460D01*
X0050724Y0069246D02*
X0050724Y0069246D01*
X0050724Y0070032D02*
X0050724Y0070032D01*
X0052299Y0070430D02*
X0052299Y0070430D01*
X0052299Y0067674D01*
X0052299Y0067674D01*
X0052299Y0070430D01*
X0052299Y0068460D02*
X0052299Y0068460D01*
X0052299Y0069246D02*
X0052299Y0069246D01*
X0052299Y0070032D02*
X0052299Y0070032D01*
X0053874Y0070430D02*
X0053874Y0070430D01*
X0053874Y0067674D01*
X0053874Y0067674D01*
X0053874Y0070430D01*
X0053874Y0068460D02*
X0053874Y0068460D01*
X0053874Y0069246D02*
X0053874Y0069246D01*
X0053874Y0070032D02*
X0053874Y0070032D01*
X0055449Y0070430D02*
X0055449Y0070430D01*
X0055449Y0067674D01*
X0055449Y0067674D01*
X0055449Y0070430D01*
X0055449Y0068460D02*
X0055449Y0068460D01*
X0055449Y0069246D02*
X0055449Y0069246D01*
X0055449Y0070032D02*
X0055449Y0070032D01*
X0057024Y0070430D02*
X0057024Y0070430D01*
X0057024Y0067674D01*
X0057024Y0067674D01*
X0057024Y0070430D01*
X0057024Y0068460D02*
X0057024Y0068460D01*
X0057024Y0069246D02*
X0057024Y0069246D01*
X0057024Y0070032D02*
X0057024Y0070032D01*
X0058598Y0070430D02*
X0058598Y0070430D01*
X0058598Y0067674D01*
X0058598Y0067674D01*
X0058598Y0070430D01*
X0058598Y0068460D02*
X0058598Y0068460D01*
X0058598Y0069246D02*
X0058598Y0069246D01*
X0058598Y0070032D02*
X0058598Y0070032D01*
D14*
X0046000Y0084800D03*
D15*
X0097901Y0094835D03*
X0097901Y0049165D03*
D16*
X0088058Y0055268D03*
X0088058Y0057236D03*
X0088058Y0059205D03*
X0088058Y0061173D03*
X0088058Y0063142D03*
X0088058Y0065110D03*
X0088058Y0067079D03*
X0088058Y0069047D03*
X0088058Y0071016D03*
X0088058Y0072984D03*
X0088058Y0074953D03*
X0088058Y0076921D03*
X0088058Y0078890D03*
X0088058Y0080858D03*
X0088058Y0082827D03*
X0088058Y0084795D03*
X0088058Y0086764D03*
X0088058Y0088732D03*
D17*
X0035400Y0211054D03*
X0035400Y0217746D03*
X0027400Y0217746D03*
X0027400Y0211054D03*
D18*
X0043084Y0212687D03*
X0045643Y0212687D03*
X0048202Y0212687D03*
X0050761Y0212687D03*
X0053320Y0212687D03*
X0055880Y0212687D03*
X0058439Y0212687D03*
X0060998Y0212687D03*
X0063557Y0212687D03*
X0066116Y0212687D03*
X0066116Y0189713D03*
X0063557Y0189713D03*
X0060998Y0189713D03*
X0058439Y0189713D03*
X0055880Y0189713D03*
X0053320Y0189713D03*
X0050761Y0189713D03*
X0048202Y0189713D03*
X0045643Y0189713D03*
X0043084Y0189713D03*
D19*
X0038100Y0225300D03*
X0038100Y0230300D03*
X0038100Y0235300D03*
X0038100Y0240300D03*
X0038100Y0245300D03*
X0038100Y0250300D03*
X0038100Y0255300D03*
X0038100Y0260300D03*
X0062300Y0260300D03*
X0062300Y0255300D03*
X0062300Y0250300D03*
X0062300Y0245300D03*
X0062300Y0240300D03*
X0062300Y0235300D03*
X0062300Y0230300D03*
X0062300Y0225300D03*
D20*
X0063162Y0218800D03*
X0058438Y0218800D03*
D21*
X0027450Y0255638D03*
X0027450Y0260362D03*
D22*
X0038454Y0176000D03*
X0041854Y0168000D03*
X0045146Y0176000D03*
X0048546Y0168000D03*
D23*
X0058625Y0157039D03*
X0061775Y0157039D03*
X0061775Y0149361D03*
X0058625Y0149361D03*
D24*
X0055102Y0149361D03*
X0055102Y0157039D03*
X0065298Y0157039D03*
X0065298Y0149361D03*
M02*
