%
M48
M72
T01C0.01200
T02C0.03200
T03C0.03800
T04C0.04000
%
T01
X24200Y59200
X30200Y69200
X26600Y81000
X23000Y80800
X23000Y84000
X26600Y96800
X40400Y90000
X40400Y84000
X40400Y78000
X46000Y78000
X46200Y73600
X46800Y63800
X43000Y60000
X38600Y56400
X37400Y59600
X46000Y84000
X46000Y90000
X51600Y90000
X51600Y84000
X51600Y78000
X58600Y63200
X61000Y66000
X61400Y69600
X62600Y60400
X67400Y66800
X70200Y69600
X67800Y72800
X67000Y76000
X65800Y85600
X68600Y87200
X70600Y95200
X67800Y96800
X65000Y102400
X62200Y104000
X61400Y100400
X58200Y107600
X55400Y109200
X61000Y109200
X60800Y120600
X60800Y125800
X55600Y125800
X55600Y120600
X55600Y131000
X62200Y145400
X65800Y145400
X66600Y161200
X64600Y164400
X61800Y168800
X58600Y166400
X63800Y185200
X62600Y194000
X65000Y196800
X61800Y204000
X61800Y207600
X66600Y218800
X69800Y204400
X80800Y234800
X85800Y214400
X85800Y210800
X85800Y207200
X92600Y201000
X92600Y197200
X92600Y193400
X92600Y187000
X101000Y184800
X103800Y172800
X100600Y164800
X98600Y160800
X101000Y146800
X103800Y134600
X85800Y112000
X85800Y108800
X85800Y105600
X80600Y99400
X83200Y93600
X83200Y89200
X81400Y77200
X81000Y72200
X93400Y65200
X94200Y62000
X93000Y58800
X93000Y81200
X93000Y84800
X66000Y120600
X71000Y162000
X49200Y200600
X46000Y198600
X46000Y202600
X42800Y200600
X41400Y206400
X31400Y207400
X25000Y222600
X25000Y228200
X25000Y233800
X25000Y239400
X22200Y261200
X44200Y255200
X47400Y258000
X44000Y245400
X47000Y237200
X49800Y234400
X23400Y207400
X24200Y198400
X21800Y195600
X21800Y184400
X41400Y106800
X53800Y59200
X58200Y51200
X61000Y45800
X100734Y198666
X101000Y222800
X103800Y228000
X100200Y234400
X101800Y257200
X85400Y261600
X82200Y256000
T02
X75800Y257000
X75800Y247000
X75800Y237000
X75800Y227000
X75800Y217000
X75800Y207000
X75800Y197000
X75800Y187000
X75800Y177000
X75800Y167000
X75800Y157000
X75800Y147000
X75800Y137000
X75800Y127000
X75800Y117000
X75800Y107000
X75800Y97000
X75800Y87000
X75800Y77000
X75800Y67000
X15800Y67000
X15800Y77000
X15800Y87000
X15800Y97000
X15800Y107000
X15800Y117000
X15800Y127000
X15800Y137000
X15800Y147000
X15800Y157000
X15800Y167000
X15800Y177000
X15800Y187000
X15800Y197000
X15800Y207000
X15800Y217000
X15800Y227000
X15800Y237000
X15800Y247000
X15800Y257000
T03
X93300Y250200
X94300Y240200
X93300Y230200
X94300Y260200
T04
X13400Y45000
X23400Y45000
X33400Y45000
X43400Y45000
X53400Y45000
M30
