G75*
%MOIN*%
%OFA0B0*%
%FSLAX25Y25*%
%IPPOS*%
%LPD*%
%AMOC8*
5,1,8,0,0,1.08239X$1,22.5*
%
%ADD10C,0.00000*%
%ADD11R,0.06000X0.06000*%
%ADD12C,0.06000*%
%ADD13R,0.02913X0.03642*%
%ADD14R,0.03642X0.02913*%
%ADD15C,0.06000*%
%ADD16OC8,0.06600*%
%ADD17C,0.06600*%
%ADD18R,0.04724X0.04724*%
%ADD19C,0.01600*%
%ADD20C,0.02400*%
%ADD21C,0.02400*%
%ADD22C,0.04000*%
%ADD23C,0.00800*%
%ADD24C,0.03200*%
%ADD25C,0.01200*%
D10*
X0001000Y0037800D02*
X0001000Y0266800D01*
X0109600Y0266800D01*
X0109600Y0037800D01*
X0001000Y0037800D01*
D11*
X0015800Y0257000D03*
D12*
X0015800Y0247000D03*
X0015800Y0237000D03*
X0015800Y0227000D03*
X0015800Y0217000D03*
X0015800Y0207000D03*
X0015800Y0197000D03*
X0015800Y0187000D03*
X0015800Y0177000D03*
X0015800Y0167000D03*
X0015800Y0157000D03*
X0015800Y0147000D03*
X0015800Y0137000D03*
X0015800Y0127000D03*
X0015800Y0117000D03*
X0015800Y0107000D03*
X0015800Y0097000D03*
X0015800Y0087000D03*
X0015800Y0077000D03*
X0015800Y0067000D03*
X0075800Y0067000D03*
X0075800Y0077000D03*
X0075800Y0087000D03*
X0075800Y0097000D03*
X0075800Y0107000D03*
X0075800Y0117000D03*
X0075800Y0127000D03*
X0075800Y0137000D03*
X0075800Y0147000D03*
X0075800Y0157000D03*
X0075800Y0167000D03*
X0075800Y0177000D03*
X0075800Y0187000D03*
X0075800Y0197000D03*
X0075800Y0207000D03*
X0075800Y0217000D03*
X0075800Y0227000D03*
X0075800Y0237000D03*
X0075800Y0247000D03*
X0075800Y0257000D03*
D13*
X0031400Y0077562D03*
X0031400Y0072838D03*
X0037800Y0073562D03*
X0037800Y0068838D03*
X0043000Y0068838D03*
X0043000Y0073562D03*
X0049400Y0073562D03*
X0049400Y0068838D03*
X0056600Y0068838D03*
X0056600Y0073562D03*
D14*
X0057438Y0084400D03*
X0057438Y0090400D03*
X0057438Y0096400D03*
X0062162Y0096400D03*
X0062162Y0090400D03*
X0062162Y0084400D03*
X0034962Y0084400D03*
X0034962Y0090400D03*
X0034962Y0096400D03*
X0030238Y0096400D03*
X0030238Y0090400D03*
X0030238Y0084400D03*
D15*
X0033400Y0048000D02*
X0033400Y0042000D01*
X0023400Y0042000D02*
X0023400Y0048000D01*
X0013400Y0048000D02*
X0013400Y0042000D01*
X0043400Y0042000D02*
X0043400Y0048000D01*
X0053400Y0048000D02*
X0053400Y0042000D01*
D16*
X0093300Y0230200D03*
D17*
X0094300Y0240200D03*
X0093300Y0250200D03*
X0094300Y0260200D03*
D18*
X0105000Y0260934D03*
X0105000Y0252666D03*
X0105000Y0244934D03*
X0105000Y0236666D03*
X0105000Y0222934D03*
X0105000Y0214666D03*
X0105000Y0206934D03*
X0105000Y0198666D03*
X0105000Y0184934D03*
X0105000Y0176666D03*
X0105000Y0168934D03*
X0105000Y0160666D03*
X0105000Y0146734D03*
X0105000Y0138466D03*
X0105000Y0130734D03*
X0105000Y0122466D03*
D19*
X0105000Y0130734D02*
X0105000Y0133400D01*
X0103800Y0134600D01*
X0105000Y0135800D01*
X0105000Y0138466D01*
X0100600Y0164800D02*
X0100600Y0184400D01*
X0101000Y0184800D01*
X0105000Y0176666D02*
X0105000Y0174000D01*
X0103800Y0172800D01*
X0105000Y0171600D01*
X0105000Y0168934D01*
X0105000Y0206934D02*
X0105000Y0214666D01*
X0105000Y0244934D02*
X0105000Y0252666D01*
X0075800Y0247000D02*
X0045600Y0247000D01*
X0044000Y0245400D01*
X0022200Y0261200D02*
X0019800Y0263600D01*
X0012600Y0263600D01*
X0008600Y0259600D01*
X0008600Y0154200D01*
X0015800Y0147000D01*
X0026600Y0096800D02*
X0029838Y0096800D01*
X0030238Y0096400D01*
X0030238Y0090400D02*
X0029400Y0090400D01*
X0023000Y0084000D01*
X0026600Y0081000D02*
X0060400Y0081000D01*
X0061748Y0082348D01*
X0061748Y0084386D01*
X0062162Y0084400D02*
X0064600Y0084400D01*
X0065800Y0085600D01*
X0068600Y0087200D02*
X0065400Y0090400D01*
X0062162Y0090400D01*
X0062162Y0096400D01*
X0062162Y0090400D02*
X0062600Y0090400D01*
X0062162Y0084400D02*
X0062562Y0084000D01*
X0068600Y0084400D02*
X0061400Y0077200D01*
X0061400Y0069600D01*
X0060638Y0068838D01*
X0056600Y0068838D01*
X0056600Y0074000D02*
X0053000Y0077600D01*
X0051800Y0077600D01*
X0031400Y0077600D01*
X0030800Y0078200D01*
X0031400Y0072838D02*
X0030200Y0071638D01*
X0030200Y0069200D01*
X0037800Y0068838D02*
X0043000Y0068838D01*
X0043000Y0060000D01*
X0046800Y0063800D02*
X0046800Y0065800D01*
X0049400Y0068400D01*
X0049400Y0068838D01*
X0049362Y0073600D02*
X0046200Y0073600D01*
X0046162Y0073562D01*
X0043000Y0073562D01*
X0037800Y0073562D01*
X0068600Y0084400D02*
X0068600Y0087200D01*
X0069000Y0087200D01*
D20*
X0062162Y0096400D02*
X0062162Y0099638D01*
X0061400Y0100400D01*
X0056200Y0100400D01*
X0049800Y0106800D01*
X0041400Y0106800D01*
X0037400Y0106800D01*
X0030600Y0100000D01*
X0030600Y0096762D01*
X0030238Y0096400D01*
X0023000Y0080800D02*
X0023000Y0078400D01*
X0028562Y0072838D01*
X0031400Y0072838D01*
X0031400Y0077562D02*
X0031400Y0077600D01*
X0049362Y0073600D02*
X0049400Y0073562D01*
X0056600Y0073562D02*
X0056600Y0074000D01*
X0075800Y0177000D02*
X0069400Y0183400D01*
X0069400Y0198800D01*
X0066600Y0201600D01*
X0066600Y0218800D01*
D21*
X0066600Y0218800D03*
X0061800Y0207600D03*
X0061800Y0204000D03*
X0065000Y0196800D03*
X0062600Y0194000D03*
X0063800Y0185200D03*
X0061800Y0168800D03*
X0058600Y0166400D03*
X0064600Y0164400D03*
X0066600Y0161200D03*
X0071000Y0162000D03*
X0065800Y0145400D03*
X0062200Y0145400D03*
X0055600Y0131000D03*
X0055600Y0125800D03*
X0055600Y0120600D03*
X0060800Y0120600D03*
X0060800Y0125800D03*
X0066000Y0120600D03*
X0061000Y0109200D03*
X0062200Y0104000D03*
X0061400Y0100400D03*
X0065000Y0102400D03*
X0067800Y0096800D03*
X0070600Y0095200D03*
X0068600Y0087200D03*
X0065800Y0085600D03*
X0067000Y0076000D03*
X0067800Y0072800D03*
X0070200Y0069600D03*
X0067400Y0066800D03*
X0062600Y0060400D03*
X0061000Y0066000D03*
X0061400Y0069600D03*
X0058600Y0063200D03*
X0053800Y0059200D03*
X0058200Y0051200D03*
X0061000Y0045800D03*
X0051600Y0078000D03*
X0051600Y0084000D03*
X0051600Y0090000D03*
X0046000Y0090000D03*
X0046000Y0084000D03*
X0046000Y0078000D03*
X0046200Y0073600D03*
X0046800Y0063800D03*
X0043000Y0060000D03*
X0038600Y0056400D03*
X0037400Y0059600D03*
X0030200Y0069200D03*
X0026600Y0081000D03*
X0023000Y0080800D03*
X0023000Y0084000D03*
X0026600Y0096800D03*
X0040400Y0090000D03*
X0040400Y0084000D03*
X0040400Y0078000D03*
X0041400Y0106800D03*
X0055400Y0109200D03*
X0058200Y0107600D03*
X0080600Y0099400D03*
X0083200Y0093600D03*
X0083200Y0089200D03*
X0081400Y0077200D03*
X0081000Y0072200D03*
X0093400Y0065200D03*
X0094200Y0062000D03*
X0093000Y0058800D03*
X0093000Y0081200D03*
X0093000Y0084800D03*
X0085800Y0105600D03*
X0085800Y0108800D03*
X0085800Y0112000D03*
X0101000Y0146800D03*
X0103800Y0134600D03*
X0098600Y0160800D03*
X0100600Y0164800D03*
X0103800Y0172800D03*
X0101000Y0184800D03*
X0100734Y0198666D03*
X0092600Y0197200D03*
X0092600Y0193400D03*
X0092600Y0187000D03*
X0092600Y0201000D03*
X0085800Y0207200D03*
X0085800Y0210800D03*
X0085800Y0214400D03*
X0080800Y0234800D03*
X0082200Y0256000D03*
X0085400Y0261600D03*
X0100200Y0234400D03*
X0103800Y0228000D03*
X0101000Y0222800D03*
X0101800Y0257200D03*
X0069800Y0204400D03*
X0049800Y0234400D03*
X0047000Y0237200D03*
X0044000Y0245400D03*
X0044200Y0255200D03*
X0047400Y0258000D03*
X0041400Y0206400D03*
X0042800Y0200600D03*
X0046000Y0198600D03*
X0046000Y0202600D03*
X0049200Y0200600D03*
X0031400Y0207400D03*
X0025000Y0222600D03*
X0025000Y0228200D03*
X0025000Y0233800D03*
X0025000Y0239400D03*
X0022200Y0261200D03*
X0023400Y0207400D03*
X0024200Y0198400D03*
X0021800Y0195600D03*
X0021800Y0184400D03*
X0024200Y0059200D03*
D22*
X0015800Y0167000D02*
X0015800Y0172000D01*
X0015800Y0176800D01*
D23*
X0018200Y0176942D02*
X0046200Y0176942D01*
X0046200Y0176144D02*
X0020119Y0176144D01*
X0020092Y0175970D02*
X0020191Y0176600D01*
X0018200Y0176600D01*
X0018200Y0177400D01*
X0020191Y0177400D01*
X0020092Y0178030D01*
X0019878Y0178689D01*
X0019617Y0179200D01*
X0023077Y0179200D01*
X0023959Y0179565D01*
X0025959Y0181565D01*
X0026635Y0182241D01*
X0027000Y0183123D01*
X0027000Y0193006D01*
X0037994Y0204000D01*
X0039275Y0204000D01*
X0039587Y0203687D01*
X0040763Y0203200D01*
X0042037Y0203200D01*
X0043213Y0203687D01*
X0044113Y0204587D01*
X0044600Y0205763D01*
X0044600Y0207037D01*
X0044113Y0208213D01*
X0043213Y0209113D01*
X0042037Y0209600D01*
X0040763Y0209600D01*
X0039587Y0209113D01*
X0039275Y0208800D01*
X0036523Y0208800D01*
X0035641Y0208435D01*
X0034965Y0207759D01*
X0027061Y0199855D01*
X0026913Y0200213D01*
X0026013Y0201113D01*
X0024837Y0201600D01*
X0024394Y0201600D01*
X0023000Y0202994D01*
X0023000Y0232677D01*
X0022635Y0233559D01*
X0020621Y0235573D01*
X0020800Y0236005D01*
X0020800Y0237995D01*
X0020039Y0239832D01*
X0018632Y0241239D01*
X0018200Y0241418D01*
X0018200Y0242582D01*
X0018632Y0242761D01*
X0020039Y0244168D01*
X0020800Y0246005D01*
X0020800Y0247995D01*
X0020039Y0249832D01*
X0018632Y0251239D01*
X0018200Y0251418D01*
X0018200Y0252000D01*
X0019628Y0252000D01*
X0020800Y0253172D01*
X0020800Y0258316D01*
X0021563Y0258000D01*
X0022837Y0258000D01*
X0024013Y0258487D01*
X0024913Y0259387D01*
X0024980Y0259551D01*
X0044520Y0259408D01*
X0044200Y0258637D01*
X0044200Y0258400D01*
X0043563Y0258400D01*
X0042387Y0257913D01*
X0041487Y0257013D01*
X0041000Y0255837D01*
X0041000Y0254563D01*
X0041487Y0253387D01*
X0041806Y0253069D01*
X0041241Y0252835D01*
X0040565Y0252159D01*
X0037365Y0248959D01*
X0037000Y0248077D01*
X0037000Y0240323D01*
X0037365Y0239441D01*
X0038041Y0238765D01*
X0044441Y0232365D01*
X0045323Y0232000D01*
X0047675Y0232000D01*
X0047987Y0231687D01*
X0049163Y0231200D01*
X0050437Y0231200D01*
X0051613Y0231687D01*
X0052513Y0232587D01*
X0053000Y0233763D01*
X0053000Y0235037D01*
X0052513Y0236213D01*
X0051613Y0237113D01*
X0050437Y0237600D01*
X0050200Y0237600D01*
X0050200Y0237837D01*
X0049713Y0239013D01*
X0048813Y0239913D01*
X0047637Y0240400D01*
X0047194Y0240400D01*
X0045172Y0242422D01*
X0045813Y0242687D01*
X0046713Y0243587D01*
X0046967Y0244200D01*
X0069806Y0244200D01*
X0069765Y0244159D01*
X0064441Y0238835D01*
X0064441Y0238835D01*
X0063765Y0238159D01*
X0063400Y0237277D01*
X0063400Y0228194D01*
X0059641Y0224435D01*
X0059641Y0224435D01*
X0058965Y0223759D01*
X0058600Y0222877D01*
X0058600Y0215394D01*
X0053241Y0210035D01*
X0052565Y0209359D01*
X0052200Y0208477D01*
X0052200Y0200994D01*
X0047241Y0196035D01*
X0046565Y0195359D01*
X0046200Y0194477D01*
X0046200Y0161523D01*
X0046565Y0160641D01*
X0057000Y0150206D01*
X0057000Y0143523D01*
X0057365Y0142641D01*
X0058565Y0141441D01*
X0059241Y0140765D01*
X0060123Y0140400D01*
X0065077Y0140400D01*
X0065959Y0140765D01*
X0067159Y0141965D01*
X0067835Y0142641D01*
X0068025Y0143099D01*
X0068513Y0143587D01*
X0069000Y0144763D01*
X0069000Y0146037D01*
X0068513Y0147213D01*
X0067613Y0148113D01*
X0066437Y0148600D01*
X0065163Y0148600D01*
X0064600Y0148367D01*
X0064600Y0151677D01*
X0064235Y0152559D01*
X0063559Y0153235D01*
X0058994Y0157800D01*
X0066317Y0157800D01*
X0066800Y0158000D01*
X0067237Y0158000D01*
X0068413Y0158487D01*
X0069205Y0159280D01*
X0070363Y0158800D01*
X0071134Y0158800D01*
X0070800Y0157995D01*
X0070800Y0156005D01*
X0071561Y0154168D01*
X0072968Y0152761D01*
X0073000Y0152748D01*
X0073000Y0150404D01*
X0072934Y0150356D01*
X0072444Y0149866D01*
X0072037Y0149306D01*
X0071722Y0148689D01*
X0071508Y0148030D01*
X0071409Y0147400D01*
X0073000Y0147400D01*
X0073000Y0146600D01*
X0071409Y0146600D01*
X0071508Y0145970D01*
X0071722Y0145311D01*
X0072037Y0144694D01*
X0072444Y0144134D01*
X0072934Y0143644D01*
X0073000Y0143596D01*
X0073000Y0141252D01*
X0072968Y0141239D01*
X0071561Y0139832D01*
X0070800Y0137995D01*
X0070800Y0136005D01*
X0070979Y0135573D01*
X0068965Y0133559D01*
X0068600Y0132677D01*
X0068600Y0126194D01*
X0067365Y0124959D01*
X0067000Y0124077D01*
X0067000Y0117394D01*
X0065765Y0116159D01*
X0065400Y0115277D01*
X0065400Y0114194D01*
X0061159Y0118435D01*
X0060277Y0118800D01*
X0029723Y0118800D01*
X0028841Y0118435D01*
X0028165Y0117759D01*
X0020097Y0109691D01*
X0020039Y0109832D01*
X0018632Y0111239D01*
X0018200Y0111418D01*
X0018200Y0112582D01*
X0018632Y0112761D01*
X0020039Y0114168D01*
X0020800Y0116005D01*
X0020800Y0117995D01*
X0020039Y0119832D01*
X0018632Y0121239D01*
X0018200Y0121418D01*
X0018200Y0122582D01*
X0018632Y0122761D01*
X0020039Y0124168D01*
X0020800Y0126005D01*
X0020800Y0127995D01*
X0020039Y0129832D01*
X0018632Y0131239D01*
X0018200Y0131418D01*
X0018200Y0132582D01*
X0018632Y0132761D01*
X0020039Y0134168D01*
X0020800Y0136005D01*
X0020800Y0137995D01*
X0020039Y0139832D01*
X0018632Y0141239D01*
X0018200Y0141418D01*
X0018200Y0142582D01*
X0018632Y0142761D01*
X0020039Y0144168D01*
X0020800Y0146005D01*
X0020800Y0147995D01*
X0020039Y0149832D01*
X0018632Y0151239D01*
X0018200Y0151418D01*
X0018200Y0152582D01*
X0018632Y0152761D01*
X0020039Y0154168D01*
X0020800Y0156005D01*
X0020800Y0157995D01*
X0020039Y0159832D01*
X0018632Y0161239D01*
X0018200Y0161418D01*
X0018200Y0163305D01*
X0018666Y0163644D01*
X0019156Y0164134D01*
X0019563Y0164694D01*
X0019878Y0165311D01*
X0020092Y0165970D01*
X0020191Y0166600D01*
X0018200Y0166600D01*
X0018200Y0167400D01*
X0020191Y0167400D01*
X0020092Y0168030D01*
X0019878Y0168689D01*
X0019563Y0169306D01*
X0019156Y0169866D01*
X0018666Y0170356D01*
X0018200Y0170695D01*
X0018200Y0173305D01*
X0018666Y0173644D01*
X0019156Y0174134D01*
X0019563Y0174694D01*
X0019878Y0175311D01*
X0020092Y0175970D01*
X0019889Y0175345D02*
X0046200Y0175345D01*
X0046200Y0174547D02*
X0019456Y0174547D01*
X0018771Y0173748D02*
X0046200Y0173748D01*
X0046200Y0172950D02*
X0018200Y0172950D01*
X0018200Y0172151D02*
X0046200Y0172151D01*
X0046200Y0171353D02*
X0018200Y0171353D01*
X0018394Y0170554D02*
X0046200Y0170554D01*
X0046200Y0169756D02*
X0019236Y0169756D01*
X0019741Y0168957D02*
X0046200Y0168957D01*
X0046200Y0168159D02*
X0020050Y0168159D01*
X0020185Y0166562D02*
X0046200Y0166562D01*
X0046200Y0167360D02*
X0018200Y0167360D01*
X0019701Y0164965D02*
X0046200Y0164965D01*
X0046200Y0165763D02*
X0020025Y0165763D01*
X0019180Y0164166D02*
X0046200Y0164166D01*
X0046200Y0163368D02*
X0018286Y0163368D01*
X0018200Y0162569D02*
X0046200Y0162569D01*
X0046200Y0161771D02*
X0018200Y0161771D01*
X0018899Y0160972D02*
X0046428Y0160972D01*
X0047032Y0160174D02*
X0019697Y0160174D01*
X0020228Y0159375D02*
X0047831Y0159375D01*
X0048629Y0158577D02*
X0020559Y0158577D01*
X0020800Y0157778D02*
X0049428Y0157778D01*
X0050226Y0156980D02*
X0020800Y0156980D01*
X0020800Y0156181D02*
X0051025Y0156181D01*
X0051823Y0155383D02*
X0020542Y0155383D01*
X0020211Y0154584D02*
X0052622Y0154584D01*
X0053420Y0153786D02*
X0019657Y0153786D01*
X0018858Y0152987D02*
X0054219Y0152987D01*
X0055017Y0152189D02*
X0018200Y0152189D01*
X0018267Y0151390D02*
X0055816Y0151390D01*
X0056614Y0150592D02*
X0019279Y0150592D01*
X0020055Y0149793D02*
X0057000Y0149793D01*
X0057000Y0148995D02*
X0020386Y0148995D01*
X0020717Y0148196D02*
X0057000Y0148196D01*
X0057000Y0147398D02*
X0020800Y0147398D01*
X0020800Y0146599D02*
X0057000Y0146599D01*
X0057000Y0145801D02*
X0020715Y0145801D01*
X0020384Y0145002D02*
X0057000Y0145002D01*
X0057000Y0144203D02*
X0020054Y0144203D01*
X0019276Y0143405D02*
X0057049Y0143405D01*
X0057399Y0142606D02*
X0018259Y0142606D01*
X0018200Y0141808D02*
X0058198Y0141808D01*
X0058996Y0141009D02*
X0018862Y0141009D01*
X0019660Y0140211D02*
X0071940Y0140211D01*
X0071387Y0139412D02*
X0020213Y0139412D01*
X0020543Y0138614D02*
X0071057Y0138614D01*
X0070800Y0137815D02*
X0020800Y0137815D01*
X0020800Y0137017D02*
X0070800Y0137017D01*
X0070800Y0136218D02*
X0020800Y0136218D01*
X0020557Y0135420D02*
X0070826Y0135420D01*
X0070027Y0134621D02*
X0020227Y0134621D01*
X0019694Y0133823D02*
X0069229Y0133823D01*
X0068744Y0133024D02*
X0018895Y0133024D01*
X0018200Y0132226D02*
X0068600Y0132226D01*
X0068600Y0131427D02*
X0018200Y0131427D01*
X0019242Y0130629D02*
X0068600Y0130629D01*
X0068600Y0129830D02*
X0020040Y0129830D01*
X0020370Y0129032D02*
X0068600Y0129032D01*
X0068600Y0128233D02*
X0020701Y0128233D01*
X0020800Y0127435D02*
X0068600Y0127435D01*
X0068600Y0126636D02*
X0020800Y0126636D01*
X0020731Y0125838D02*
X0068244Y0125838D01*
X0067445Y0125039D02*
X0020400Y0125039D01*
X0020069Y0124241D02*
X0067068Y0124241D01*
X0067000Y0123442D02*
X0019313Y0123442D01*
X0018349Y0122644D02*
X0067000Y0122644D01*
X0067000Y0121845D02*
X0018200Y0121845D01*
X0018824Y0121047D02*
X0067000Y0121047D01*
X0067000Y0120248D02*
X0019623Y0120248D01*
X0020197Y0119450D02*
X0067000Y0119450D01*
X0067000Y0118651D02*
X0060637Y0118651D01*
X0061741Y0117853D02*
X0067000Y0117853D01*
X0066660Y0117054D02*
X0062540Y0117054D01*
X0063338Y0116256D02*
X0065861Y0116256D01*
X0065474Y0115457D02*
X0064137Y0115457D01*
X0064936Y0114659D02*
X0065400Y0114659D01*
X0065000Y0111200D02*
X0065000Y0102400D01*
X0063400Y0105200D02*
X0063400Y0110400D01*
X0059000Y0114800D01*
X0031000Y0114800D01*
X0018200Y0102000D01*
X0013000Y0102000D01*
X0011000Y0100000D01*
X0011000Y0071800D01*
X0015800Y0067000D01*
X0013400Y0062800D02*
X0018200Y0062800D01*
X0020600Y0065200D01*
X0036200Y0065200D01*
X0040200Y0061200D01*
X0040200Y0058800D01*
X0041800Y0057200D01*
X0049800Y0057200D01*
X0051800Y0059200D01*
X0053800Y0059200D01*
X0055400Y0054000D02*
X0036200Y0054000D01*
X0030600Y0059200D01*
X0024200Y0059200D01*
X0023000Y0062000D02*
X0020600Y0059600D01*
X0011000Y0059600D01*
X0005600Y0065000D01*
X0005600Y0102600D01*
X0007000Y0104000D01*
X0007000Y0113600D01*
X0009200Y0115800D01*
X0009200Y0123000D01*
X0011000Y0124800D01*
X0011000Y0132200D01*
X0015800Y0137000D01*
X0015800Y0127000D02*
X0011000Y0122200D01*
X0011000Y0114800D01*
X0009000Y0112800D01*
X0009000Y0103200D01*
X0007400Y0101600D01*
X0007400Y0066000D01*
X0012200Y0061200D01*
X0019400Y0061200D01*
X0021800Y0063600D01*
X0033400Y0063600D01*
X0037400Y0059600D01*
X0037000Y0056400D02*
X0031800Y0062000D01*
X0023000Y0062000D01*
X0015800Y0077000D02*
X0020400Y0081600D01*
X0020400Y0089000D01*
X0022600Y0091200D01*
X0022600Y0098800D01*
X0033800Y0110000D01*
X0054600Y0110000D01*
X0055400Y0109200D01*
X0056600Y0111600D02*
X0058200Y0110000D01*
X0058200Y0107600D01*
X0056600Y0111600D02*
X0033000Y0111600D01*
X0021000Y0099600D01*
X0021000Y0092200D01*
X0015800Y0087000D01*
X0015800Y0097000D02*
X0032000Y0113200D01*
X0057800Y0113200D01*
X0061000Y0110000D01*
X0061000Y0109200D01*
X0063400Y0105200D02*
X0062200Y0104000D01*
X0065400Y0098400D02*
X0065400Y0095200D01*
X0071000Y0089600D01*
X0071000Y0080400D01*
X0067000Y0076000D01*
X0067800Y0072800D02*
X0070600Y0072800D01*
X0071400Y0072000D01*
X0077400Y0072000D01*
X0080600Y0068800D01*
X0080600Y0064400D01*
X0091000Y0054000D01*
X0094200Y0054000D01*
X0100200Y0060000D01*
X0100200Y0089600D01*
X0095800Y0094000D01*
X0095800Y0111600D01*
X0088200Y0119200D01*
X0088200Y0203200D01*
X0089800Y0204800D01*
X0089800Y0211600D01*
X0087000Y0214400D01*
X0085800Y0214400D01*
X0085400Y0219200D02*
X0085400Y0230200D01*
X0080800Y0234800D01*
X0079000Y0241200D02*
X0073000Y0241200D01*
X0067800Y0236000D01*
X0067800Y0226000D01*
X0063000Y0221200D01*
X0063000Y0213200D01*
X0056600Y0206800D01*
X0056600Y0199200D01*
X0050600Y0193200D01*
X0050600Y0162800D01*
X0062200Y0151200D01*
X0062200Y0145400D01*
X0060600Y0142800D02*
X0064600Y0142800D01*
X0065800Y0144000D01*
X0065800Y0145400D01*
X0067412Y0148196D02*
X0071562Y0148196D01*
X0071878Y0148995D02*
X0064600Y0148995D01*
X0064600Y0149793D02*
X0072391Y0149793D01*
X0073000Y0150592D02*
X0064600Y0150592D01*
X0064600Y0151390D02*
X0073000Y0151390D01*
X0073000Y0152189D02*
X0064388Y0152189D01*
X0063807Y0152987D02*
X0072742Y0152987D01*
X0071943Y0153786D02*
X0063008Y0153786D01*
X0062210Y0154584D02*
X0071389Y0154584D01*
X0071058Y0155383D02*
X0061411Y0155383D01*
X0060613Y0156181D02*
X0070800Y0156181D01*
X0070800Y0156980D02*
X0059814Y0156980D01*
X0059016Y0157778D02*
X0070800Y0157778D01*
X0071041Y0158577D02*
X0068502Y0158577D01*
X0068328Y0147398D02*
X0073000Y0147398D01*
X0071409Y0146599D02*
X0068767Y0146599D01*
X0069000Y0145801D02*
X0071563Y0145801D01*
X0071880Y0145002D02*
X0069000Y0145002D01*
X0068768Y0144203D02*
X0072393Y0144203D01*
X0073000Y0143405D02*
X0068330Y0143405D01*
X0067801Y0142606D02*
X0073000Y0142606D01*
X0073000Y0141808D02*
X0067002Y0141808D01*
X0066204Y0141009D02*
X0072738Y0141009D01*
X0075800Y0137000D02*
X0073200Y0134400D01*
X0074400Y0136200D01*
X0075000Y0135600D02*
X0073200Y0134400D01*
X0071000Y0132200D01*
X0071000Y0125200D01*
X0069400Y0123600D01*
X0069400Y0116400D01*
X0067800Y0114800D01*
X0067800Y0100800D01*
X0065400Y0098400D01*
X0067800Y0096800D02*
X0069400Y0098400D01*
X0069400Y0113600D01*
X0071000Y0115200D01*
X0071000Y0122200D01*
X0073000Y0124200D01*
X0075000Y0125400D01*
X0074200Y0126200D02*
X0073000Y0124200D01*
X0075800Y0127000D01*
X0075800Y0117000D02*
X0073200Y0114400D01*
X0075000Y0115400D01*
X0074200Y0116200D02*
X0073200Y0114400D01*
X0071000Y0112200D01*
X0071000Y0095600D01*
X0070600Y0095200D01*
X0075800Y0097000D02*
X0078400Y0094400D01*
X0076400Y0095400D01*
X0077600Y0096200D02*
X0078400Y0094400D01*
X0080600Y0092200D01*
X0080600Y0081600D01*
X0083800Y0078400D01*
X0083800Y0075000D01*
X0081000Y0072200D01*
X0081400Y0077200D02*
X0081400Y0078000D01*
X0076200Y0083200D01*
X0075800Y0084800D01*
X0075800Y0083600D01*
X0076200Y0083200D01*
X0075800Y0084800D02*
X0075800Y0087000D01*
X0080600Y0099400D02*
X0078000Y0102000D01*
X0077000Y0102000D01*
X0075800Y0103200D01*
X0075800Y0103600D01*
X0075400Y0105200D01*
X0076200Y0105200D02*
X0075800Y0103600D01*
X0075800Y0107000D01*
X0085000Y0116800D02*
X0085000Y0206400D01*
X0085800Y0207200D01*
X0088200Y0206000D02*
X0086600Y0204400D01*
X0086600Y0118000D01*
X0094200Y0110400D01*
X0094200Y0092800D01*
X0098600Y0088400D01*
X0098600Y0062400D01*
X0095000Y0058800D01*
X0093000Y0058800D01*
X0094200Y0062000D02*
X0097000Y0064800D01*
X0097000Y0087200D01*
X0092600Y0091600D01*
X0092600Y0109200D01*
X0085000Y0116800D01*
X0085800Y0112000D02*
X0086980Y0112000D01*
X0091000Y0107980D01*
X0091000Y0090400D01*
X0095400Y0086000D01*
X0095400Y0067400D01*
X0095200Y0067200D01*
X0093400Y0065200D01*
X0101800Y0058800D02*
X0095400Y0052400D01*
X0089800Y0052400D01*
X0079800Y0062400D01*
X0073400Y0062400D01*
X0070200Y0065600D01*
X0070200Y0069600D01*
X0067400Y0066800D02*
X0067400Y0065600D01*
X0072200Y0060800D01*
X0078600Y0060800D01*
X0089000Y0050800D01*
X0096600Y0050800D01*
X0103400Y0057600D01*
X0103400Y0092000D01*
X0099000Y0096400D01*
X0099000Y0114000D01*
X0091400Y0121600D01*
X0091400Y0185800D01*
X0092600Y0187000D01*
X0095000Y0185600D02*
X0093000Y0183600D01*
X0093000Y0122400D01*
X0100600Y0114800D01*
X0100600Y0097600D01*
X0105000Y0093200D01*
X0105000Y0056400D01*
X0097800Y0049200D01*
X0087400Y0049200D01*
X0077400Y0059200D01*
X0071000Y0059200D01*
X0064200Y0066000D01*
X0061000Y0066000D01*
X0062600Y0060400D02*
X0065000Y0060400D01*
X0069400Y0056000D01*
X0075000Y0056000D01*
X0085000Y0046000D01*
X0100200Y0046000D01*
X0108200Y0054000D01*
X0108200Y0095600D01*
X0103800Y0100000D01*
X0103800Y0117200D01*
X0096200Y0124800D01*
X0096200Y0181200D01*
X0098200Y0183200D01*
X0098200Y0196600D01*
X0093800Y0201000D01*
X0092600Y0201000D01*
X0091400Y0203600D02*
X0091400Y0213200D01*
X0085400Y0219200D01*
X0087800Y0226800D02*
X0087800Y0232400D01*
X0079000Y0241200D01*
X0080200Y0242800D02*
X0071800Y0242800D01*
X0065800Y0236800D01*
X0065800Y0227200D01*
X0061000Y0222400D01*
X0061000Y0214400D01*
X0054600Y0208000D01*
X0054600Y0200000D01*
X0048600Y0194000D01*
X0048600Y0162000D01*
X0059400Y0151200D01*
X0059400Y0144000D01*
X0060600Y0142800D01*
X0059800Y0116400D02*
X0065000Y0111200D01*
X0059800Y0116400D02*
X0030200Y0116400D01*
X0020800Y0107000D01*
X0015800Y0107000D01*
X0018200Y0111465D02*
X0021870Y0111465D01*
X0022669Y0112263D02*
X0018200Y0112263D01*
X0018933Y0113062D02*
X0023467Y0113062D01*
X0024266Y0113860D02*
X0019731Y0113860D01*
X0020242Y0114659D02*
X0025064Y0114659D01*
X0025863Y0115457D02*
X0020573Y0115457D01*
X0020800Y0116256D02*
X0026662Y0116256D01*
X0027460Y0117054D02*
X0020800Y0117054D01*
X0020800Y0117853D02*
X0028259Y0117853D01*
X0029363Y0118651D02*
X0020528Y0118651D01*
X0021072Y0110666D02*
X0019205Y0110666D01*
X0020004Y0109868D02*
X0020273Y0109868D01*
X0015800Y0117000D02*
X0011000Y0112200D01*
X0011000Y0102400D01*
X0009200Y0100600D01*
X0009200Y0067000D01*
X0013400Y0062800D01*
X0023000Y0080800D02*
X0025400Y0083200D01*
X0029038Y0083200D01*
X0030238Y0084400D01*
X0034962Y0084400D02*
X0035000Y0084400D01*
X0035291Y0084315D02*
X0057109Y0084315D01*
X0057109Y0084072D02*
X0054217Y0084072D01*
X0054217Y0083800D01*
X0038183Y0083800D01*
X0038183Y0084072D01*
X0035291Y0084072D01*
X0035291Y0084728D01*
X0038183Y0084728D01*
X0038183Y0086041D01*
X0038088Y0086397D01*
X0037903Y0086716D01*
X0037643Y0086977D01*
X0037323Y0087161D01*
X0036967Y0087257D01*
X0035291Y0087257D01*
X0035291Y0084728D01*
X0035000Y0084728D01*
X0035000Y0090072D01*
X0035291Y0090072D01*
X0035291Y0090728D01*
X0038183Y0090728D01*
X0038183Y0092041D01*
X0038088Y0092397D01*
X0037903Y0092716D01*
X0037643Y0092977D01*
X0037323Y0093161D01*
X0036967Y0093257D01*
X0035291Y0093257D01*
X0035291Y0090728D01*
X0035000Y0090728D01*
X0035000Y0096072D01*
X0035291Y0096072D01*
X0035291Y0096728D01*
X0038183Y0096728D01*
X0038183Y0098041D01*
X0038088Y0098397D01*
X0037903Y0098716D01*
X0037643Y0098977D01*
X0037323Y0099161D01*
X0036967Y0099257D01*
X0035291Y0099257D01*
X0035291Y0096728D01*
X0035000Y0096728D01*
X0035000Y0099875D01*
X0038725Y0103600D01*
X0048475Y0103600D01*
X0053487Y0098587D01*
X0054217Y0097858D01*
X0054217Y0096728D01*
X0057109Y0096728D01*
X0057109Y0096072D01*
X0054217Y0096072D01*
X0054217Y0094759D01*
X0054312Y0094403D01*
X0054497Y0094084D01*
X0054757Y0093823D01*
X0055077Y0093639D01*
X0055433Y0093543D01*
X0057109Y0093543D01*
X0057109Y0096072D01*
X0057400Y0096072D01*
X0057400Y0090728D01*
X0057109Y0090728D01*
X0057109Y0090072D01*
X0054217Y0090072D01*
X0054217Y0088759D01*
X0054312Y0088403D01*
X0054497Y0088084D01*
X0054757Y0087823D01*
X0055077Y0087639D01*
X0055433Y0087543D01*
X0057109Y0087543D01*
X0057109Y0090072D01*
X0057400Y0090072D01*
X0057400Y0084728D01*
X0057109Y0084728D01*
X0057109Y0084072D01*
X0057400Y0084400D02*
X0057438Y0084400D01*
X0051200Y0084400D01*
X0051600Y0084000D01*
X0051600Y0078000D02*
X0051600Y0077800D01*
X0051800Y0077600D01*
X0054217Y0084728D02*
X0057109Y0084728D01*
X0057109Y0087257D01*
X0055433Y0087257D01*
X0055077Y0087161D01*
X0054757Y0086977D01*
X0054497Y0086716D01*
X0054312Y0086397D01*
X0054217Y0086041D01*
X0054217Y0084728D01*
X0054217Y0085114D02*
X0038183Y0085114D01*
X0038183Y0085912D02*
X0054217Y0085912D01*
X0054493Y0086711D02*
X0037907Y0086711D01*
X0037323Y0087639D02*
X0037643Y0087823D01*
X0037903Y0088084D01*
X0038088Y0088403D01*
X0038183Y0088759D01*
X0038183Y0090072D01*
X0035291Y0090072D01*
X0035291Y0087543D01*
X0036967Y0087543D01*
X0037323Y0087639D01*
X0038033Y0088308D02*
X0054367Y0088308D01*
X0054217Y0089106D02*
X0038183Y0089106D01*
X0038183Y0089905D02*
X0054217Y0089905D01*
X0054217Y0090728D02*
X0057109Y0090728D01*
X0057109Y0093257D01*
X0055433Y0093257D01*
X0055077Y0093161D01*
X0054757Y0092977D01*
X0054497Y0092716D01*
X0054312Y0092397D01*
X0054217Y0092041D01*
X0054217Y0090728D01*
X0054217Y0091502D02*
X0038183Y0091502D01*
X0038114Y0092300D02*
X0054286Y0092300D01*
X0054968Y0093099D02*
X0037432Y0093099D01*
X0037323Y0093639D02*
X0037643Y0093823D01*
X0037903Y0094084D01*
X0038088Y0094403D01*
X0038183Y0094759D01*
X0038183Y0096072D01*
X0035291Y0096072D01*
X0035291Y0093543D01*
X0036967Y0093543D01*
X0037323Y0093639D01*
X0037717Y0093897D02*
X0054683Y0093897D01*
X0054234Y0094696D02*
X0038166Y0094696D01*
X0038183Y0095494D02*
X0054217Y0095494D01*
X0054217Y0097091D02*
X0038183Y0097091D01*
X0038183Y0097890D02*
X0054185Y0097890D01*
X0053386Y0098688D02*
X0037919Y0098688D01*
X0036209Y0101084D02*
X0050991Y0101084D01*
X0051789Y0100285D02*
X0035411Y0100285D01*
X0035000Y0099487D02*
X0052588Y0099487D01*
X0050192Y0101882D02*
X0037008Y0101882D01*
X0037806Y0102681D02*
X0049394Y0102681D01*
X0048595Y0103479D02*
X0038605Y0103479D01*
X0035291Y0098688D02*
X0035000Y0098688D01*
X0035000Y0097890D02*
X0035291Y0097890D01*
X0035291Y0097091D02*
X0035000Y0097091D01*
X0035291Y0096293D02*
X0057109Y0096293D01*
X0057109Y0095494D02*
X0057400Y0095494D01*
X0057400Y0094696D02*
X0057109Y0094696D01*
X0057109Y0093897D02*
X0057400Y0093897D01*
X0057400Y0093099D02*
X0057109Y0093099D01*
X0057109Y0092300D02*
X0057400Y0092300D01*
X0057400Y0091502D02*
X0057109Y0091502D01*
X0057109Y0090703D02*
X0035291Y0090703D01*
X0035291Y0089905D02*
X0035000Y0089905D01*
X0035000Y0089106D02*
X0035291Y0089106D01*
X0035291Y0088308D02*
X0035000Y0088308D01*
X0035000Y0087509D02*
X0057400Y0087509D01*
X0057400Y0086711D02*
X0057109Y0086711D01*
X0057109Y0085912D02*
X0057400Y0085912D01*
X0057400Y0085114D02*
X0057109Y0085114D01*
X0057109Y0088308D02*
X0057400Y0088308D01*
X0057400Y0089106D02*
X0057109Y0089106D01*
X0057109Y0089905D02*
X0057400Y0089905D01*
X0061748Y0084386D02*
X0062148Y0084386D01*
X0062162Y0084400D01*
X0064600Y0063200D02*
X0058600Y0063200D01*
X0055400Y0054000D02*
X0058200Y0051200D01*
X0064600Y0063200D02*
X0070200Y0057600D01*
X0076200Y0057600D01*
X0086200Y0047600D01*
X0099000Y0047600D01*
X0106600Y0055200D01*
X0106600Y0094400D01*
X0102200Y0098800D01*
X0102200Y0116000D01*
X0094600Y0123600D01*
X0094600Y0182400D01*
X0096600Y0184400D01*
X0096600Y0194400D01*
X0093800Y0197200D01*
X0092600Y0197200D01*
X0092600Y0193400D02*
X0093800Y0193400D01*
X0095000Y0192200D01*
X0095000Y0185600D01*
X0101000Y0184800D02*
X0104866Y0184800D01*
X0105000Y0184934D01*
X0105000Y0198666D02*
X0100734Y0198666D01*
X0105000Y0214666D02*
X0105000Y0215000D01*
X0104000Y0216000D01*
X0098600Y0216000D01*
X0087800Y0226800D01*
X0087800Y0235200D02*
X0080200Y0242800D01*
X0083800Y0251200D02*
X0087800Y0255200D01*
X0095800Y0255200D01*
X0098600Y0252400D01*
X0098600Y0244500D01*
X0094300Y0240200D01*
X0097000Y0235200D02*
X0087800Y0235200D01*
X0083800Y0251200D02*
X0071800Y0251200D01*
X0069800Y0249200D01*
X0043800Y0249200D01*
X0041400Y0246800D01*
X0041400Y0242800D01*
X0047000Y0237200D01*
X0045800Y0234400D02*
X0039400Y0240800D01*
X0039400Y0247600D01*
X0042600Y0250800D01*
X0068600Y0250800D01*
X0070600Y0252800D01*
X0082600Y0252800D01*
X0090000Y0260200D01*
X0094300Y0260200D01*
X0085400Y0261600D02*
X0083800Y0263200D01*
X0060600Y0263200D01*
X0054600Y0257200D01*
X0048200Y0257200D01*
X0047400Y0258000D01*
X0044429Y0259189D02*
X0024715Y0259189D01*
X0023780Y0258391D02*
X0043541Y0258391D01*
X0042067Y0257592D02*
X0020800Y0257592D01*
X0020800Y0256794D02*
X0041396Y0256794D01*
X0041066Y0255995D02*
X0020800Y0255995D01*
X0020800Y0255197D02*
X0041000Y0255197D01*
X0041069Y0254398D02*
X0020800Y0254398D01*
X0020800Y0253600D02*
X0041399Y0253600D01*
X0041207Y0252801D02*
X0020429Y0252801D01*
X0019631Y0252003D02*
X0040408Y0252003D01*
X0039610Y0251204D02*
X0018667Y0251204D01*
X0019466Y0250405D02*
X0038811Y0250405D01*
X0038013Y0249607D02*
X0020132Y0249607D01*
X0020463Y0248808D02*
X0037303Y0248808D01*
X0037000Y0248010D02*
X0020794Y0248010D01*
X0020800Y0247211D02*
X0037000Y0247211D01*
X0037000Y0246413D02*
X0020800Y0246413D01*
X0020638Y0245614D02*
X0037000Y0245614D01*
X0037000Y0244816D02*
X0020307Y0244816D01*
X0019888Y0244017D02*
X0037000Y0244017D01*
X0037000Y0243219D02*
X0019090Y0243219D01*
X0018200Y0242420D02*
X0037000Y0242420D01*
X0037000Y0241622D02*
X0018200Y0241622D01*
X0019048Y0240823D02*
X0037000Y0240823D01*
X0037123Y0240025D02*
X0019846Y0240025D01*
X0020290Y0239226D02*
X0037580Y0239226D01*
X0038378Y0238428D02*
X0020621Y0238428D01*
X0020800Y0237629D02*
X0039177Y0237629D01*
X0039975Y0236831D02*
X0020800Y0236831D01*
X0020800Y0236032D02*
X0040774Y0236032D01*
X0041572Y0235234D02*
X0020960Y0235234D01*
X0021759Y0234435D02*
X0042371Y0234435D01*
X0043169Y0233637D02*
X0022557Y0233637D01*
X0022933Y0232838D02*
X0043968Y0232838D01*
X0045227Y0232040D02*
X0023000Y0232040D01*
X0023000Y0231241D02*
X0049064Y0231241D01*
X0050536Y0231241D02*
X0063400Y0231241D01*
X0063400Y0230443D02*
X0023000Y0230443D01*
X0023000Y0229644D02*
X0063400Y0229644D01*
X0063400Y0228846D02*
X0023000Y0228846D01*
X0023000Y0228047D02*
X0063253Y0228047D01*
X0062455Y0227249D02*
X0023000Y0227249D01*
X0023000Y0226450D02*
X0061656Y0226450D01*
X0060858Y0225652D02*
X0023000Y0225652D01*
X0023000Y0224853D02*
X0060059Y0224853D01*
X0059261Y0224055D02*
X0023000Y0224055D01*
X0023000Y0223256D02*
X0058757Y0223256D01*
X0058600Y0222458D02*
X0023000Y0222458D01*
X0023000Y0221659D02*
X0058600Y0221659D01*
X0058600Y0220861D02*
X0023000Y0220861D01*
X0023000Y0220062D02*
X0058600Y0220062D01*
X0058600Y0219264D02*
X0023000Y0219264D01*
X0023000Y0218465D02*
X0058600Y0218465D01*
X0058600Y0217667D02*
X0023000Y0217667D01*
X0023000Y0216868D02*
X0058600Y0216868D01*
X0058600Y0216070D02*
X0023000Y0216070D01*
X0023000Y0215271D02*
X0058477Y0215271D01*
X0057678Y0214472D02*
X0023000Y0214472D01*
X0023000Y0213674D02*
X0056880Y0213674D01*
X0056081Y0212875D02*
X0023000Y0212875D01*
X0023000Y0212077D02*
X0055283Y0212077D01*
X0054484Y0211278D02*
X0023000Y0211278D01*
X0023000Y0210480D02*
X0053686Y0210480D01*
X0052887Y0209681D02*
X0023000Y0209681D01*
X0023000Y0208883D02*
X0039357Y0208883D01*
X0041400Y0206400D02*
X0037000Y0206400D01*
X0024600Y0194000D01*
X0024600Y0183600D01*
X0022600Y0181600D01*
X0013400Y0181600D01*
X0011000Y0179200D01*
X0011000Y0161800D01*
X0015800Y0157000D01*
X0015800Y0172000D02*
X0019000Y0172000D01*
X0020137Y0177741D02*
X0046200Y0177741D01*
X0046200Y0178539D02*
X0019926Y0178539D01*
X0021800Y0184400D02*
X0021800Y0191000D01*
X0015800Y0197000D01*
X0014200Y0201200D02*
X0011000Y0204400D01*
X0011000Y0242200D01*
X0015800Y0247000D01*
X0015800Y0237000D02*
X0020600Y0232200D01*
X0020600Y0202000D01*
X0024200Y0198400D01*
X0024298Y0201696D02*
X0028902Y0201696D01*
X0028104Y0200898D02*
X0026228Y0200898D01*
X0026960Y0200099D02*
X0027305Y0200099D01*
X0029701Y0202495D02*
X0023499Y0202495D01*
X0023000Y0203293D02*
X0030499Y0203293D01*
X0031298Y0204092D02*
X0023000Y0204092D01*
X0023000Y0204890D02*
X0032096Y0204890D01*
X0032895Y0205689D02*
X0023000Y0205689D01*
X0023000Y0206487D02*
X0033693Y0206487D01*
X0034492Y0207286D02*
X0023000Y0207286D01*
X0023000Y0208084D02*
X0035290Y0208084D01*
X0037287Y0203293D02*
X0040538Y0203293D01*
X0042262Y0203293D02*
X0052200Y0203293D01*
X0052200Y0202495D02*
X0036489Y0202495D01*
X0035690Y0201696D02*
X0052200Y0201696D01*
X0052104Y0200898D02*
X0034892Y0200898D01*
X0034093Y0200099D02*
X0051305Y0200099D01*
X0050507Y0199301D02*
X0033295Y0199301D01*
X0032496Y0198502D02*
X0049708Y0198502D01*
X0048910Y0197704D02*
X0031698Y0197704D01*
X0030899Y0196905D02*
X0048111Y0196905D01*
X0047313Y0196107D02*
X0030101Y0196107D01*
X0029302Y0195308D02*
X0046544Y0195308D01*
X0046213Y0194510D02*
X0028504Y0194510D01*
X0027705Y0193711D02*
X0046200Y0193711D01*
X0046200Y0192913D02*
X0027000Y0192913D01*
X0027000Y0192114D02*
X0046200Y0192114D01*
X0046200Y0191316D02*
X0027000Y0191316D01*
X0027000Y0190517D02*
X0046200Y0190517D01*
X0046200Y0189719D02*
X0027000Y0189719D01*
X0027000Y0188920D02*
X0046200Y0188920D01*
X0046200Y0188122D02*
X0027000Y0188122D01*
X0027000Y0187323D02*
X0046200Y0187323D01*
X0046200Y0186525D02*
X0027000Y0186525D01*
X0027000Y0185726D02*
X0046200Y0185726D01*
X0046200Y0184928D02*
X0027000Y0184928D01*
X0027000Y0184129D02*
X0046200Y0184129D01*
X0046200Y0183331D02*
X0027000Y0183331D01*
X0026755Y0182532D02*
X0046200Y0182532D01*
X0046200Y0181734D02*
X0026128Y0181734D01*
X0025959Y0181565D02*
X0025959Y0181565D01*
X0025329Y0180935D02*
X0046200Y0180935D01*
X0046200Y0180137D02*
X0024531Y0180137D01*
X0023411Y0179338D02*
X0046200Y0179338D01*
X0043617Y0204092D02*
X0052200Y0204092D01*
X0052200Y0204890D02*
X0044238Y0204890D01*
X0044569Y0205689D02*
X0052200Y0205689D01*
X0052200Y0206487D02*
X0044600Y0206487D01*
X0044497Y0207286D02*
X0052200Y0207286D01*
X0052200Y0208084D02*
X0044166Y0208084D01*
X0043443Y0208883D02*
X0052368Y0208883D01*
X0051965Y0232040D02*
X0063400Y0232040D01*
X0063400Y0232838D02*
X0052617Y0232838D01*
X0052948Y0233637D02*
X0063400Y0233637D01*
X0063400Y0234435D02*
X0053000Y0234435D01*
X0052918Y0235234D02*
X0063400Y0235234D01*
X0063400Y0236032D02*
X0052588Y0236032D01*
X0051895Y0236831D02*
X0063400Y0236831D01*
X0063546Y0237629D02*
X0050200Y0237629D01*
X0049955Y0238428D02*
X0064034Y0238428D01*
X0064832Y0239226D02*
X0049499Y0239226D01*
X0048542Y0240025D02*
X0065631Y0240025D01*
X0066429Y0240823D02*
X0046771Y0240823D01*
X0045972Y0241622D02*
X0067228Y0241622D01*
X0068026Y0242420D02*
X0045174Y0242420D01*
X0046344Y0243219D02*
X0068825Y0243219D01*
X0069623Y0244017D02*
X0046891Y0244017D01*
X0045800Y0234400D02*
X0049800Y0234400D01*
X0055400Y0255200D02*
X0044200Y0255200D01*
X0055400Y0255200D02*
X0061800Y0261600D01*
X0079000Y0261600D01*
X0082200Y0258400D01*
X0082200Y0256000D01*
X0075800Y0237000D02*
X0069800Y0231000D01*
X0069800Y0204400D01*
X0085800Y0210800D02*
X0087000Y0210800D01*
X0088200Y0209600D01*
X0088200Y0206000D01*
X0091400Y0203600D02*
X0089800Y0202000D01*
X0089800Y0120400D01*
X0097400Y0112800D01*
X0097400Y0095200D01*
X0101800Y0090800D01*
X0101800Y0058800D01*
X0093000Y0081200D02*
X0090600Y0081200D01*
X0087800Y0084000D01*
X0087800Y0104800D01*
X0087000Y0105600D01*
X0085800Y0105600D01*
X0085800Y0108800D02*
X0087000Y0108800D01*
X0089400Y0106400D01*
X0089400Y0086400D01*
X0091000Y0084800D01*
X0093000Y0084800D01*
X0105000Y0122466D02*
X0100666Y0126800D01*
X0100600Y0126800D01*
X0101066Y0146734D02*
X0101000Y0146800D01*
X0101066Y0146734D02*
X0105000Y0146734D01*
X0104866Y0222800D02*
X0101000Y0222800D01*
X0104866Y0222800D02*
X0105000Y0222934D01*
X0097000Y0235200D02*
X0100600Y0238800D01*
X0100600Y0240534D01*
X0105000Y0244934D01*
X0069765Y0244159D02*
X0069765Y0244159D01*
X0021800Y0197200D02*
X0021800Y0195600D01*
X0021800Y0197200D02*
X0017800Y0201200D01*
X0014200Y0201200D01*
X0035000Y0095494D02*
X0035291Y0095494D01*
X0035291Y0094696D02*
X0035000Y0094696D01*
X0035000Y0093897D02*
X0035291Y0093897D01*
X0035291Y0093099D02*
X0035000Y0093099D01*
X0035000Y0092300D02*
X0035291Y0092300D01*
X0035291Y0091502D02*
X0035000Y0091502D01*
X0035000Y0086711D02*
X0035291Y0086711D01*
X0035291Y0085912D02*
X0035000Y0085912D01*
X0035000Y0085114D02*
X0035291Y0085114D01*
X0037000Y0056400D02*
X0038600Y0056400D01*
D24*
X0042800Y0167000D02*
X0015800Y0167000D01*
D25*
X0053000Y0164000D02*
X0056600Y0160400D01*
X0065800Y0160400D01*
X0066600Y0161200D01*
X0063400Y0163200D02*
X0064600Y0164400D01*
X0063400Y0163200D02*
X0057800Y0163200D01*
X0055800Y0165200D01*
X0055800Y0191600D01*
X0061800Y0197600D01*
X0061800Y0204000D01*
X0059000Y0205600D02*
X0061000Y0207600D01*
X0061800Y0207600D01*
X0059000Y0205600D02*
X0059000Y0198400D01*
X0053000Y0192400D01*
X0053000Y0164000D01*
X0058600Y0166400D02*
X0058600Y0190000D01*
X0062600Y0194000D01*
X0065400Y0192800D02*
X0061000Y0188400D01*
X0061000Y0169600D01*
X0061800Y0168800D01*
X0063400Y0172000D02*
X0071000Y0164400D01*
X0071000Y0162000D01*
X0063400Y0172000D02*
X0063400Y0184800D01*
X0063800Y0185200D01*
X0065400Y0192800D02*
X0065400Y0196400D01*
X0065000Y0196800D01*
X0081000Y0221800D02*
X0075800Y0227000D01*
X0083000Y0228200D02*
X0075800Y0235400D01*
X0075800Y0237000D01*
X0081000Y0221800D02*
X0081000Y0103000D01*
X0083200Y0100800D01*
X0083200Y0093600D01*
X0085800Y0091800D02*
X0083200Y0089200D01*
X0085800Y0091800D02*
X0085800Y0101800D01*
X0083000Y0104600D01*
X0083000Y0228200D01*
X0100200Y0234400D02*
X0101000Y0233600D01*
X0101000Y0222800D01*
X0103800Y0228000D02*
X0105000Y0229200D01*
X0105000Y0236666D01*
X0101800Y0257200D02*
X0101800Y0257734D01*
X0105000Y0260934D01*
X0098600Y0160800D02*
X0098734Y0160666D01*
X0105000Y0160666D01*
X0105000Y0155600D01*
X0098200Y0148800D01*
X0098200Y0144800D01*
X0100600Y0142400D01*
X0100600Y0126866D01*
X0105000Y0122466D01*
X0054600Y0062400D02*
X0061000Y0056000D01*
X0061000Y0045800D01*
X0054600Y0062400D02*
X0051000Y0062400D01*
X0048600Y0060000D01*
X0043000Y0060000D01*
M02*
