G75*
%MOIN*%
%OFA0B0*%
%FSLAX25Y25*%
%IPPOS*%
%LPD*%
%AMOC8*
5,1,8,0,0,1.08239X$1,22.5*
%
%ADD10C,0.00000*%
%ADD11C,0.00500*%
%ADD12C,0.00400*%
%ADD13C,0.01200*%
%ADD14C,0.00300*%
%ADD15C,0.00600*%
%ADD16C,0.00200*%
%ADD17R,0.00394X0.05512*%
%ADD18R,0.00787X0.05512*%
%ADD19R,0.00787X0.00394*%
D10*
X0002450Y0037800D02*
X0002450Y0266800D01*
X0111050Y0266800D01*
X0111050Y0037800D01*
X0002450Y0037800D01*
D11*
X0031702Y0069052D02*
X0063198Y0069052D01*
X0063198Y0100548D01*
X0031702Y0100548D01*
X0031702Y0069052D01*
X0032150Y0099300D02*
X0032152Y0099356D01*
X0032158Y0099413D01*
X0032168Y0099468D01*
X0032182Y0099523D01*
X0032199Y0099577D01*
X0032221Y0099629D01*
X0032246Y0099679D01*
X0032274Y0099728D01*
X0032306Y0099775D01*
X0032341Y0099819D01*
X0032379Y0099861D01*
X0032420Y0099900D01*
X0032464Y0099935D01*
X0032510Y0099968D01*
X0032558Y0099997D01*
X0032608Y0100023D01*
X0032660Y0100046D01*
X0032714Y0100064D01*
X0032768Y0100079D01*
X0032823Y0100090D01*
X0032879Y0100097D01*
X0032936Y0100100D01*
X0032992Y0100099D01*
X0033049Y0100094D01*
X0033104Y0100085D01*
X0033159Y0100072D01*
X0033213Y0100055D01*
X0033266Y0100035D01*
X0033317Y0100011D01*
X0033366Y0099983D01*
X0033413Y0099952D01*
X0033458Y0099918D01*
X0033501Y0099880D01*
X0033540Y0099840D01*
X0033577Y0099797D01*
X0033610Y0099752D01*
X0033640Y0099704D01*
X0033667Y0099654D01*
X0033690Y0099603D01*
X0033710Y0099550D01*
X0033726Y0099496D01*
X0033738Y0099440D01*
X0033746Y0099385D01*
X0033750Y0099328D01*
X0033750Y0099272D01*
X0033746Y0099215D01*
X0033738Y0099160D01*
X0033726Y0099104D01*
X0033710Y0099050D01*
X0033690Y0098997D01*
X0033667Y0098946D01*
X0033640Y0098896D01*
X0033610Y0098848D01*
X0033577Y0098803D01*
X0033540Y0098760D01*
X0033501Y0098720D01*
X0033458Y0098682D01*
X0033413Y0098648D01*
X0033366Y0098617D01*
X0033317Y0098589D01*
X0033266Y0098565D01*
X0033213Y0098545D01*
X0033159Y0098528D01*
X0033104Y0098515D01*
X0033049Y0098506D01*
X0032992Y0098501D01*
X0032936Y0098500D01*
X0032879Y0098503D01*
X0032823Y0098510D01*
X0032768Y0098521D01*
X0032714Y0098536D01*
X0032660Y0098554D01*
X0032608Y0098577D01*
X0032558Y0098603D01*
X0032510Y0098632D01*
X0032464Y0098665D01*
X0032420Y0098700D01*
X0032379Y0098739D01*
X0032341Y0098781D01*
X0032306Y0098825D01*
X0032274Y0098872D01*
X0032246Y0098921D01*
X0032221Y0098971D01*
X0032199Y0099023D01*
X0032182Y0099077D01*
X0032168Y0099132D01*
X0032158Y0099187D01*
X0032152Y0099244D01*
X0032150Y0099300D01*
X0044382Y0109050D02*
X0046717Y0109050D01*
X0045549Y0109050D02*
X0045549Y0112553D01*
X0046717Y0111385D01*
X0048065Y0112553D02*
X0048065Y0109634D01*
X0048649Y0109050D01*
X0049816Y0109050D01*
X0050400Y0109634D01*
X0050400Y0112553D01*
X0049284Y0133284D02*
X0048700Y0133868D01*
X0048700Y0135035D01*
X0049284Y0135619D01*
X0048700Y0136967D02*
X0048700Y0139302D01*
X0048700Y0138135D02*
X0052203Y0138135D01*
X0051035Y0136967D01*
X0051619Y0135619D02*
X0052203Y0135035D01*
X0052203Y0133868D01*
X0051619Y0133284D01*
X0049284Y0133284D01*
X0049314Y0151450D02*
X0050482Y0152618D01*
X0049898Y0152618D02*
X0049314Y0153201D01*
X0049314Y0154369D01*
X0049898Y0154953D01*
X0051649Y0154953D01*
X0051649Y0151450D01*
X0051649Y0152618D02*
X0049898Y0152618D01*
X0047966Y0151450D02*
X0047966Y0154953D01*
X0045631Y0151450D01*
X0045631Y0154953D01*
X0044283Y0153785D02*
X0043115Y0154953D01*
X0043115Y0151450D01*
X0041948Y0151450D02*
X0044283Y0151450D01*
X0039400Y0166250D02*
X0039400Y0169753D01*
X0037649Y0169753D01*
X0037065Y0169169D01*
X0037065Y0168001D01*
X0037649Y0167418D01*
X0039400Y0167418D01*
X0038232Y0167418D02*
X0037065Y0166250D01*
X0035717Y0166250D02*
X0033382Y0168585D01*
X0033382Y0169169D01*
X0033965Y0169753D01*
X0035133Y0169753D01*
X0035717Y0169169D01*
X0035717Y0166250D02*
X0033382Y0166250D01*
X0033865Y0174250D02*
X0035032Y0175418D01*
X0034449Y0175418D02*
X0036200Y0175418D01*
X0036200Y0174250D02*
X0036200Y0177753D01*
X0034449Y0177753D01*
X0033865Y0177169D01*
X0033865Y0176001D01*
X0034449Y0175418D01*
X0032517Y0176585D02*
X0031349Y0177753D01*
X0031349Y0174250D01*
X0030182Y0174250D02*
X0032517Y0174250D01*
X0038925Y0192284D02*
X0038341Y0192868D01*
X0038341Y0194035D01*
X0038925Y0194619D01*
X0041844Y0194619D01*
X0041260Y0195967D02*
X0041844Y0196551D01*
X0041844Y0197718D01*
X0041260Y0198302D01*
X0040676Y0198302D01*
X0038341Y0195967D01*
X0038341Y0198302D01*
X0038603Y0201284D02*
X0038603Y0203035D01*
X0038019Y0203619D01*
X0036851Y0203619D01*
X0036268Y0203035D01*
X0036268Y0201284D01*
X0036268Y0202451D02*
X0035100Y0203619D01*
X0035684Y0204967D02*
X0035100Y0205551D01*
X0035100Y0206718D01*
X0035684Y0207302D01*
X0036268Y0207302D01*
X0036851Y0206718D01*
X0036851Y0206135D01*
X0036851Y0206718D02*
X0037435Y0207302D01*
X0038019Y0207302D01*
X0038603Y0206718D01*
X0038603Y0205551D01*
X0038019Y0204967D01*
X0038603Y0201284D02*
X0035100Y0201284D01*
X0030603Y0201284D02*
X0030603Y0203035D01*
X0030019Y0203619D01*
X0028851Y0203619D01*
X0028268Y0203035D01*
X0028268Y0201284D01*
X0028268Y0202451D02*
X0027100Y0203619D01*
X0028851Y0204967D02*
X0028851Y0207302D01*
X0027100Y0206718D02*
X0030603Y0206718D01*
X0028851Y0204967D01*
X0027100Y0201284D02*
X0030603Y0201284D01*
X0038925Y0192284D02*
X0041844Y0192284D01*
X0048532Y0217550D02*
X0047948Y0218134D01*
X0047948Y0218718D01*
X0048532Y0219301D01*
X0049115Y0219301D01*
X0048532Y0219301D02*
X0047948Y0219885D01*
X0047948Y0220469D01*
X0048532Y0221053D01*
X0049699Y0221053D01*
X0050283Y0220469D01*
X0050283Y0218134D02*
X0049699Y0217550D01*
X0048532Y0217550D01*
X0051631Y0218134D02*
X0051631Y0221053D01*
X0051631Y0218134D02*
X0052215Y0217550D01*
X0053382Y0217550D01*
X0053966Y0218134D01*
X0053966Y0221053D01*
X0069100Y0221951D02*
X0069684Y0221367D01*
X0069100Y0221951D02*
X0069100Y0223118D01*
X0069684Y0223702D01*
X0070268Y0223702D01*
X0070851Y0223118D01*
X0070851Y0222535D01*
X0070851Y0223118D02*
X0071435Y0223702D01*
X0072019Y0223702D01*
X0072603Y0223118D01*
X0072603Y0221951D01*
X0072019Y0221367D01*
X0072603Y0218851D02*
X0071435Y0217684D01*
X0072019Y0216336D02*
X0072603Y0215752D01*
X0072603Y0214584D01*
X0072019Y0214001D01*
X0069684Y0214001D01*
X0069100Y0214584D01*
X0069100Y0215752D01*
X0069684Y0216336D01*
X0069100Y0217684D02*
X0069100Y0220019D01*
X0069100Y0218851D02*
X0072603Y0218851D01*
X0030603Y0242984D02*
X0030019Y0242401D01*
X0027684Y0242401D01*
X0027100Y0242984D01*
X0027100Y0244152D01*
X0027684Y0244736D01*
X0027100Y0246084D02*
X0027100Y0248419D01*
X0027100Y0247251D02*
X0030603Y0247251D01*
X0029435Y0246084D01*
X0030019Y0244736D02*
X0030603Y0244152D01*
X0030603Y0242984D01*
X0028851Y0249767D02*
X0028851Y0252102D01*
X0027100Y0251518D02*
X0030603Y0251518D01*
X0028851Y0249767D01*
X0068715Y0053753D02*
X0068715Y0050250D01*
X0067548Y0050250D02*
X0069883Y0050250D01*
X0071231Y0050250D02*
X0073566Y0050250D01*
X0073566Y0053753D01*
X0069883Y0052585D02*
X0068715Y0053753D01*
D12*
X0058050Y0104200D02*
X0058050Y0107002D01*
X0056649Y0107002D01*
X0056182Y0106535D01*
X0056182Y0105601D01*
X0056649Y0105134D01*
X0058050Y0105134D01*
X0055103Y0104667D02*
X0054636Y0104200D01*
X0053702Y0104200D01*
X0053235Y0104667D01*
X0053235Y0105134D01*
X0053702Y0105601D01*
X0054636Y0105601D01*
X0055103Y0106068D01*
X0055103Y0106535D01*
X0054636Y0107002D01*
X0053702Y0107002D01*
X0053235Y0106535D01*
X0052157Y0105601D02*
X0052157Y0104667D01*
X0051690Y0104200D01*
X0050756Y0104200D01*
X0050289Y0104667D01*
X0050289Y0105601D01*
X0050756Y0106068D01*
X0051690Y0106068D01*
X0052157Y0105601D01*
X0049210Y0104667D02*
X0048743Y0104200D01*
X0047809Y0104200D01*
X0047342Y0104667D01*
X0046264Y0104667D02*
X0045797Y0104200D01*
X0044863Y0104200D01*
X0044396Y0104667D01*
X0044396Y0105601D01*
X0044863Y0106068D01*
X0045330Y0106068D01*
X0046264Y0105601D01*
X0046264Y0107002D01*
X0044396Y0107002D01*
X0047342Y0106535D02*
X0047809Y0107002D01*
X0048743Y0107002D01*
X0049210Y0106535D01*
X0049210Y0104667D01*
X0040371Y0104200D02*
X0038503Y0104200D01*
X0037424Y0104200D02*
X0037424Y0107002D01*
X0036023Y0107002D01*
X0035556Y0106535D01*
X0035556Y0105601D01*
X0036023Y0105134D01*
X0037424Y0105134D01*
X0040371Y0104200D02*
X0040371Y0107002D01*
D13*
X0104850Y0089600D02*
X0104850Y0054400D01*
D14*
X0102300Y0057417D02*
X0099398Y0057417D01*
X0099398Y0056450D02*
X0099398Y0058385D01*
X0099398Y0059396D02*
X0101816Y0059396D01*
X0102300Y0059880D01*
X0102300Y0060848D01*
X0101816Y0061331D01*
X0099398Y0061331D01*
X0099881Y0062343D02*
X0099398Y0062827D01*
X0099398Y0063794D01*
X0099881Y0064278D01*
X0101816Y0064278D01*
X0102300Y0063794D01*
X0102300Y0062827D01*
X0101816Y0062343D01*
X0099881Y0062343D01*
X0099398Y0065289D02*
X0101333Y0067224D01*
X0100849Y0066741D02*
X0102300Y0065289D01*
X0102300Y0067224D02*
X0099398Y0067224D01*
X0100365Y0068236D02*
X0099398Y0069203D01*
X0100365Y0070171D01*
X0102300Y0070171D01*
X0102300Y0071182D02*
X0102300Y0073117D01*
X0099398Y0073117D01*
X0099398Y0071182D01*
X0099881Y0074129D02*
X0099398Y0074613D01*
X0099398Y0076064D01*
X0102300Y0076064D01*
X0101333Y0076064D02*
X0101333Y0074613D01*
X0100849Y0074129D01*
X0099881Y0074129D01*
X0100849Y0073117D02*
X0100849Y0072150D01*
X0100849Y0070171D02*
X0100849Y0068236D01*
X0100365Y0068236D02*
X0102300Y0068236D01*
X0102300Y0074129D02*
X0101333Y0075096D01*
X0101333Y0077075D02*
X0101816Y0077075D01*
X0102300Y0077559D01*
X0102300Y0079010D01*
X0099398Y0079010D01*
X0099398Y0077559D01*
X0099881Y0077075D01*
X0100365Y0077075D01*
X0100849Y0077559D01*
X0100849Y0079010D01*
X0100849Y0077559D02*
X0101333Y0077075D01*
X0101816Y0082969D02*
X0099881Y0082969D01*
X0099398Y0083452D01*
X0099398Y0084420D01*
X0099881Y0084903D01*
X0101816Y0084903D01*
X0102300Y0084420D01*
X0102300Y0083452D01*
X0101816Y0082969D01*
X0099398Y0085915D02*
X0099398Y0087850D01*
X0099398Y0086883D02*
X0102300Y0086883D01*
D15*
X0068509Y0192213D02*
X0043591Y0192213D01*
X0043591Y0210187D01*
X0068509Y0210187D01*
X0068509Y0192213D01*
X0057850Y0222800D02*
X0045450Y0222800D01*
X0045374Y0222802D01*
X0045298Y0222808D01*
X0045223Y0222817D01*
X0045148Y0222831D01*
X0045074Y0222848D01*
X0045001Y0222869D01*
X0044929Y0222893D01*
X0044858Y0222922D01*
X0044789Y0222953D01*
X0044722Y0222988D01*
X0044657Y0223027D01*
X0044593Y0223069D01*
X0044532Y0223114D01*
X0044473Y0223162D01*
X0044417Y0223213D01*
X0044363Y0223267D01*
X0044312Y0223323D01*
X0044264Y0223382D01*
X0044219Y0223443D01*
X0044177Y0223507D01*
X0044138Y0223572D01*
X0044103Y0223639D01*
X0044072Y0223708D01*
X0044043Y0223779D01*
X0044019Y0223851D01*
X0043998Y0223924D01*
X0043981Y0223998D01*
X0043967Y0224073D01*
X0043958Y0224148D01*
X0043952Y0224224D01*
X0043950Y0224300D01*
X0043950Y0261300D01*
X0043952Y0261376D01*
X0043958Y0261452D01*
X0043967Y0261527D01*
X0043981Y0261602D01*
X0043998Y0261676D01*
X0044019Y0261749D01*
X0044043Y0261821D01*
X0044072Y0261892D01*
X0044103Y0261961D01*
X0044138Y0262028D01*
X0044177Y0262093D01*
X0044219Y0262157D01*
X0044264Y0262218D01*
X0044312Y0262277D01*
X0044363Y0262333D01*
X0044417Y0262387D01*
X0044473Y0262438D01*
X0044532Y0262486D01*
X0044593Y0262531D01*
X0044657Y0262573D01*
X0044722Y0262612D01*
X0044789Y0262647D01*
X0044858Y0262678D01*
X0044929Y0262707D01*
X0045001Y0262731D01*
X0045074Y0262752D01*
X0045148Y0262769D01*
X0045223Y0262783D01*
X0045298Y0262792D01*
X0045374Y0262798D01*
X0045450Y0262800D01*
X0049650Y0262800D01*
X0053650Y0262800D01*
X0057850Y0262800D01*
X0057926Y0262798D01*
X0058002Y0262792D01*
X0058077Y0262783D01*
X0058152Y0262769D01*
X0058226Y0262752D01*
X0058299Y0262731D01*
X0058371Y0262707D01*
X0058442Y0262678D01*
X0058511Y0262647D01*
X0058578Y0262612D01*
X0058643Y0262573D01*
X0058707Y0262531D01*
X0058768Y0262486D01*
X0058827Y0262438D01*
X0058883Y0262387D01*
X0058937Y0262333D01*
X0058988Y0262277D01*
X0059036Y0262218D01*
X0059081Y0262157D01*
X0059123Y0262093D01*
X0059162Y0262028D01*
X0059197Y0261961D01*
X0059228Y0261892D01*
X0059257Y0261821D01*
X0059281Y0261749D01*
X0059302Y0261676D01*
X0059319Y0261602D01*
X0059333Y0261527D01*
X0059342Y0261452D01*
X0059348Y0261376D01*
X0059350Y0261300D01*
X0059350Y0224300D01*
X0059348Y0224224D01*
X0059342Y0224148D01*
X0059333Y0224073D01*
X0059319Y0223998D01*
X0059302Y0223924D01*
X0059281Y0223851D01*
X0059257Y0223779D01*
X0059228Y0223708D01*
X0059197Y0223639D01*
X0059162Y0223572D01*
X0059123Y0223507D01*
X0059081Y0223443D01*
X0059036Y0223382D01*
X0058988Y0223323D01*
X0058937Y0223267D01*
X0058883Y0223213D01*
X0058827Y0223162D01*
X0058768Y0223114D01*
X0058707Y0223069D01*
X0058643Y0223027D01*
X0058578Y0222988D01*
X0058511Y0222953D01*
X0058442Y0222922D01*
X0058371Y0222893D01*
X0058299Y0222869D01*
X0058226Y0222848D01*
X0058152Y0222831D01*
X0058077Y0222817D01*
X0058002Y0222808D01*
X0057926Y0222802D01*
X0057850Y0222800D01*
X0045291Y0206000D02*
X0045293Y0206084D01*
X0045299Y0206169D01*
X0045309Y0206252D01*
X0045323Y0206336D01*
X0045340Y0206418D01*
X0045362Y0206500D01*
X0045387Y0206580D01*
X0045416Y0206659D01*
X0045449Y0206737D01*
X0045485Y0206813D01*
X0045525Y0206888D01*
X0045569Y0206960D01*
X0045615Y0207031D01*
X0045665Y0207099D01*
X0045718Y0207164D01*
X0045774Y0207227D01*
X0045833Y0207288D01*
X0045895Y0207345D01*
X0045959Y0207400D01*
X0046026Y0207451D01*
X0046095Y0207500D01*
X0046167Y0207545D01*
X0046240Y0207586D01*
X0046315Y0207624D01*
X0046392Y0207659D01*
X0046471Y0207690D01*
X0046551Y0207717D01*
X0046632Y0207740D01*
X0046714Y0207760D01*
X0046797Y0207776D01*
X0046880Y0207788D01*
X0046965Y0207796D01*
X0047049Y0207800D01*
X0047133Y0207800D01*
X0047217Y0207796D01*
X0047302Y0207788D01*
X0047385Y0207776D01*
X0047468Y0207760D01*
X0047550Y0207740D01*
X0047631Y0207717D01*
X0047711Y0207690D01*
X0047790Y0207659D01*
X0047867Y0207624D01*
X0047942Y0207586D01*
X0048015Y0207545D01*
X0048087Y0207500D01*
X0048156Y0207451D01*
X0048223Y0207400D01*
X0048287Y0207345D01*
X0048349Y0207288D01*
X0048408Y0207227D01*
X0048464Y0207164D01*
X0048517Y0207099D01*
X0048567Y0207031D01*
X0048613Y0206960D01*
X0048657Y0206888D01*
X0048697Y0206813D01*
X0048733Y0206737D01*
X0048766Y0206659D01*
X0048795Y0206580D01*
X0048820Y0206500D01*
X0048842Y0206418D01*
X0048859Y0206336D01*
X0048873Y0206252D01*
X0048883Y0206169D01*
X0048889Y0206084D01*
X0048891Y0206000D01*
X0048889Y0205916D01*
X0048883Y0205831D01*
X0048873Y0205748D01*
X0048859Y0205664D01*
X0048842Y0205582D01*
X0048820Y0205500D01*
X0048795Y0205420D01*
X0048766Y0205341D01*
X0048733Y0205263D01*
X0048697Y0205187D01*
X0048657Y0205112D01*
X0048613Y0205040D01*
X0048567Y0204969D01*
X0048517Y0204901D01*
X0048464Y0204836D01*
X0048408Y0204773D01*
X0048349Y0204712D01*
X0048287Y0204655D01*
X0048223Y0204600D01*
X0048156Y0204549D01*
X0048087Y0204500D01*
X0048015Y0204455D01*
X0047942Y0204414D01*
X0047867Y0204376D01*
X0047790Y0204341D01*
X0047711Y0204310D01*
X0047631Y0204283D01*
X0047550Y0204260D01*
X0047468Y0204240D01*
X0047385Y0204224D01*
X0047302Y0204212D01*
X0047217Y0204204D01*
X0047133Y0204200D01*
X0047049Y0204200D01*
X0046965Y0204204D01*
X0046880Y0204212D01*
X0046797Y0204224D01*
X0046714Y0204240D01*
X0046632Y0204260D01*
X0046551Y0204283D01*
X0046471Y0204310D01*
X0046392Y0204341D01*
X0046315Y0204376D01*
X0046240Y0204414D01*
X0046167Y0204455D01*
X0046095Y0204500D01*
X0046026Y0204549D01*
X0045959Y0204600D01*
X0045895Y0204655D01*
X0045833Y0204712D01*
X0045774Y0204773D01*
X0045718Y0204836D01*
X0045665Y0204901D01*
X0045615Y0204969D01*
X0045569Y0205040D01*
X0045525Y0205112D01*
X0045485Y0205187D01*
X0045449Y0205263D01*
X0045416Y0205341D01*
X0045387Y0205420D01*
X0045362Y0205500D01*
X0045340Y0205582D01*
X0045323Y0205664D01*
X0045309Y0205748D01*
X0045299Y0205831D01*
X0045293Y0205916D01*
X0045291Y0206000D01*
X0049650Y0262800D02*
X0049652Y0262712D01*
X0049658Y0262623D01*
X0049668Y0262535D01*
X0049681Y0262448D01*
X0049699Y0262361D01*
X0049720Y0262275D01*
X0049745Y0262190D01*
X0049774Y0262107D01*
X0049807Y0262024D01*
X0049843Y0261944D01*
X0049882Y0261865D01*
X0049925Y0261787D01*
X0049972Y0261712D01*
X0050022Y0261639D01*
X0050075Y0261568D01*
X0050131Y0261499D01*
X0050190Y0261433D01*
X0050252Y0261370D01*
X0050316Y0261310D01*
X0050383Y0261252D01*
X0050453Y0261198D01*
X0050525Y0261146D01*
X0050599Y0261098D01*
X0050676Y0261053D01*
X0050754Y0261012D01*
X0050834Y0260974D01*
X0050915Y0260940D01*
X0050998Y0260909D01*
X0051083Y0260882D01*
X0051168Y0260859D01*
X0051254Y0260840D01*
X0051342Y0260824D01*
X0051429Y0260812D01*
X0051517Y0260804D01*
X0051606Y0260800D01*
X0051694Y0260800D01*
X0051783Y0260804D01*
X0051871Y0260812D01*
X0051958Y0260824D01*
X0052046Y0260840D01*
X0052132Y0260859D01*
X0052217Y0260882D01*
X0052302Y0260909D01*
X0052385Y0260940D01*
X0052466Y0260974D01*
X0052546Y0261012D01*
X0052624Y0261053D01*
X0052701Y0261098D01*
X0052775Y0261146D01*
X0052847Y0261198D01*
X0052917Y0261252D01*
X0052984Y0261310D01*
X0053048Y0261370D01*
X0053110Y0261433D01*
X0053169Y0261499D01*
X0053225Y0261568D01*
X0053278Y0261639D01*
X0053328Y0261712D01*
X0053375Y0261787D01*
X0053418Y0261865D01*
X0053457Y0261944D01*
X0053493Y0262024D01*
X0053526Y0262107D01*
X0053555Y0262190D01*
X0053580Y0262275D01*
X0053601Y0262361D01*
X0053619Y0262448D01*
X0053632Y0262535D01*
X0053642Y0262623D01*
X0053648Y0262712D01*
X0053650Y0262800D01*
X0084350Y0240813D02*
X0088754Y0240813D01*
X0087286Y0239345D01*
X0088754Y0237877D01*
X0084350Y0237877D01*
X0084350Y0236276D02*
X0084350Y0234808D01*
X0084350Y0235542D02*
X0088754Y0235542D01*
X0088754Y0234808D02*
X0088754Y0236276D01*
X0090650Y0235200D02*
X0090650Y0225200D01*
X0100650Y0225200D01*
X0100650Y0235200D01*
X0100650Y0245200D01*
X0100650Y0255200D01*
X0100650Y0265200D01*
X0090650Y0265200D01*
X0090650Y0255200D01*
X0090650Y0245200D01*
X0090650Y0235200D01*
X0100650Y0235200D01*
X0088754Y0233140D02*
X0084350Y0233140D01*
X0085818Y0231672D01*
X0084350Y0230204D01*
X0088754Y0230204D01*
X0088020Y0228536D02*
X0088754Y0227802D01*
X0088754Y0226334D01*
X0088020Y0225600D01*
X0087286Y0225600D01*
X0086552Y0226334D01*
X0086552Y0227802D01*
X0085818Y0228536D01*
X0085084Y0228536D01*
X0084350Y0227802D01*
X0084350Y0226334D01*
X0085084Y0225600D01*
D16*
X0067609Y0209287D02*
X0067609Y0193113D01*
X0044491Y0193113D01*
X0044491Y0209287D01*
X0067609Y0209287D01*
X0057950Y0222800D02*
X0057950Y0262800D01*
D17*
X0068933Y0153200D03*
D18*
X0053776Y0153200D03*
D19*
X0054170Y0150641D03*
X0054170Y0155759D03*
M02*
