G75*
%MOIN*%
%OFA0B0*%
%FSLAX25Y25*%
%IPPOS*%
%LPD*%
%AMOC8*
5,1,8,0,0,1.08239X$1,22.5*
%
%ADD10C,0.00000*%
%ADD11R,0.02913X0.03642*%
%ADD12R,0.03642X0.02913*%
%ADD13R,0.04724X0.04724*%
D10*
X0001000Y0037800D02*
X0001000Y0266800D01*
X0109600Y0266800D01*
X0109600Y0037800D01*
X0001000Y0037800D01*
D11*
X0031400Y0072838D03*
X0031400Y0077562D03*
X0037800Y0073562D03*
X0037800Y0068838D03*
X0043000Y0068838D03*
X0043000Y0073562D03*
X0049400Y0073562D03*
X0049400Y0068838D03*
X0056600Y0068838D03*
X0056600Y0073562D03*
D12*
X0057438Y0084400D03*
X0057438Y0090400D03*
X0057438Y0096400D03*
X0062162Y0096400D03*
X0062162Y0090400D03*
X0062162Y0084400D03*
X0034962Y0084400D03*
X0034962Y0090400D03*
X0034962Y0096400D03*
X0030238Y0096400D03*
X0030238Y0090400D03*
X0030238Y0084400D03*
D13*
X0105000Y0122466D03*
X0105000Y0130734D03*
X0105000Y0138466D03*
X0105000Y0146734D03*
X0105000Y0160666D03*
X0105000Y0168934D03*
X0105000Y0176666D03*
X0105000Y0184934D03*
X0105000Y0198666D03*
X0105000Y0206934D03*
X0105000Y0214666D03*
X0105000Y0222934D03*
X0105000Y0236666D03*
X0105000Y0244934D03*
X0105000Y0252666D03*
X0105000Y0260934D03*
M02*
