G75*
%MOIN*%
%OFA0B0*%
%FSLAX25Y25*%
%IPPOS*%
%LPD*%
%AMOC8*
5,1,8,0,0,1.08239X$1,22.5*
%
%ADD10C,0.00000*%
%ADD11R,0.04252X0.04134*%
%ADD12R,0.04134X0.04252*%
%ADD13R,0.04724X0.04724*%
%ADD14R,0.07000X0.03500*%
D10*
X0002450Y0037800D02*
X0002450Y0266800D01*
X0111050Y0266800D01*
X0111050Y0037800D01*
X0002450Y0037800D01*
D11*
X0032050Y0070155D03*
X0032050Y0077045D03*
X0038450Y0073445D03*
X0038450Y0066555D03*
X0044450Y0066555D03*
X0044450Y0073445D03*
X0050850Y0073445D03*
X0050850Y0066555D03*
X0056850Y0066555D03*
X0056850Y0073445D03*
D12*
X0056605Y0085600D03*
X0056605Y0091600D03*
X0056605Y0097600D03*
X0063495Y0097600D03*
X0063495Y0091600D03*
X0063495Y0085600D03*
X0038695Y0085600D03*
X0038695Y0091600D03*
X0038695Y0097600D03*
X0031805Y0097600D03*
X0031805Y0091600D03*
X0031805Y0085600D03*
D13*
X0106450Y0122466D03*
X0106450Y0130734D03*
X0106450Y0138466D03*
X0106450Y0146734D03*
X0106450Y0160666D03*
X0106450Y0168934D03*
X0106450Y0176666D03*
X0106450Y0184934D03*
X0106450Y0198666D03*
X0106450Y0206934D03*
X0106450Y0214666D03*
X0106450Y0222934D03*
X0106450Y0236666D03*
X0106450Y0244934D03*
X0106450Y0252666D03*
X0106450Y0260934D03*
D14*
X0007050Y0149100D03*
X0007050Y0141600D03*
X0007050Y0134100D03*
X0007050Y0126600D03*
M02*
